# The Hydraulic Crawler.
# Generated by docs/tools/make_crawler_obj.py -- do not hand-edit.
#
# Model space, not world space: sixteen units to the block, +Y downwards,
# -Z along the arm.  Every group is authored about its own pivot, and the
# pivots live in ModelHydraulicCrawler.
mtllib hydraulic_crawler.mtl

v 12.0000 -9.0000 15.0000
v 12.0000 -9.0000 -15.0000
v 12.0000 -2.0000 -15.0000
v 12.0000 -2.0000 15.0000
v -12.0000 -9.0000 -15.0000
v -12.0000 -9.0000 15.0000
v -12.0000 -2.0000 15.0000
v -12.0000 -2.0000 -15.0000
v 24.0000 -8.0000 -7.0000
v 24.0000 -8.0000 -13.0000
v 24.0000 -3.0000 -13.0000
v 24.0000 -3.0000 -7.0000
v -24.0000 -8.0000 -13.0000
v -24.0000 -8.0000 -7.0000
v -24.0000 -3.0000 -7.0000
v -24.0000 -3.0000 -13.0000
v 24.0000 -8.0000 13.0000
v 24.0000 -8.0000 7.0000
v 24.0000 -3.0000 7.0000
v 24.0000 -3.0000 13.0000
v -24.0000 -8.0000 7.0000
v -24.0000 -8.0000 13.0000
v -24.0000 -3.0000 13.0000
v -24.0000 -3.0000 7.0000
v -12.9000 1.0570 3.3647
v -12.9000 -2.3076 9.1924
v 12.9000 -2.3076 9.1924
v 12.9000 1.0570 3.3647
v -12.9000 -8.1354 12.5570
v 12.9000 -8.1354 12.5570
v -12.9000 -14.8646 12.5570
v 12.9000 -14.8646 12.5570
v -12.9000 -20.6924 9.1924
v 12.9000 -20.6924 9.1924
v -12.9000 -24.0570 3.3647
v 12.9000 -24.0570 3.3647
v -12.9000 -24.0570 -3.3647
v 12.9000 -24.0570 -3.3647
v -12.9000 -20.6924 -9.1924
v 12.9000 -20.6924 -9.1924
v -12.9000 -14.8646 -12.5570
v 12.9000 -14.8646 -12.5570
v -12.9000 -8.1354 -12.5570
v 12.9000 -8.1354 -12.5570
v -12.9000 -2.3076 -9.1924
v 12.9000 -2.3076 -9.1924
v -12.9000 1.0570 -3.3647
v 12.9000 1.0570 -3.3647
v -13.0000 -9.5000 19.0000
v -13.0000 -9.5000 -19.0000
v -13.0000 -2.5000 -19.0000
v -13.0000 -2.5000 19.0000
v -23.0000 -9.5000 -19.0000
v -23.0000 -9.5000 19.0000
v -23.0000 -2.5000 19.0000
v -23.0000 -2.5000 -19.0000
v -12.1000 -13.5000 12.0000
v -12.1000 -13.5000 -12.0000
v -12.1000 -11.5000 -12.0000
v -12.1000 -11.5000 12.0000
v -23.9000 -13.5000 -12.0000
v -23.9000 -13.5000 12.0000
v -23.9000 -11.5000 12.0000
v -23.9000 -11.5000 -12.0000
v -12.9000 -8.0000 -18.0000
v -12.9000 -8.0000 -22.0000
v -12.9000 -4.0000 -22.0000
v -12.9000 -4.0000 -18.0000
v -23.1000 -8.0000 -22.0000
v -23.1000 -8.0000 -18.0000
v -23.1000 -4.0000 -18.0000
v -23.1000 -4.0000 -22.0000
v 23.0000 -9.5000 19.0000
v 23.0000 -9.5000 -19.0000
v 23.0000 -2.5000 -19.0000
v 23.0000 -2.5000 19.0000
v 13.0000 -9.5000 -19.0000
v 13.0000 -9.5000 19.0000
v 13.0000 -2.5000 19.0000
v 13.0000 -2.5000 -19.0000
v 23.9000 -13.5000 12.0000
v 23.9000 -13.5000 -12.0000
v 23.9000 -11.5000 -12.0000
v 23.9000 -11.5000 12.0000
v 12.1000 -13.5000 -12.0000
v 12.1000 -13.5000 12.0000
v 12.1000 -11.5000 12.0000
v 12.1000 -11.5000 -12.0000
v 23.1000 -8.0000 -18.0000
v 23.1000 -8.0000 -22.0000
v 23.1000 -4.0000 -22.0000
v 23.1000 -4.0000 -18.0000
v 12.9000 -8.0000 -22.0000
v 12.9000 -8.0000 -18.0000
v 12.9000 -4.0000 -18.0000
v 12.9000 -4.0000 -22.0000
v 12.0000 0.0000 -19.0000
v 12.0000 0.0000 -14.2500
v 24.0000 0.0000 -14.2500
v 24.0000 0.0000 -19.0000
v 24.0000 -2.0000 -19.0000
v 24.0000 -2.0000 -14.2500
v 12.0000 -2.0000 -14.2500
v 12.0000 -2.0000 -19.0000
v 12.0000 0.0000 -9.5000
v 24.0000 0.0000 -9.5000
v 24.0000 -2.0000 -9.5000
v 12.0000 -2.0000 -9.5000
v 12.0000 0.0000 -4.7500
v 24.0000 0.0000 -4.7500
v 24.0000 -2.0000 -4.7500
v 12.0000 -2.0000 -4.7500
v 12.0000 0.0000 0.0000
v 24.0000 0.0000 0.0000
v 24.0000 -2.0000 0.0000
v 12.0000 -2.0000 0.0000
v 12.0000 0.0000 4.7500
v 24.0000 0.0000 4.7500
v 24.0000 -2.0000 4.7500
v 12.0000 -2.0000 4.7500
v 12.0000 0.0000 9.5000
v 24.0000 0.0000 9.5000
v 24.0000 -2.0000 9.5000
v 12.0000 -2.0000 9.5000
v 12.0000 0.0000 14.2500
v 24.0000 0.0000 14.2500
v 24.0000 -2.0000 14.2500
v 12.0000 -2.0000 14.2500
v 12.0000 0.0000 19.0000
v 24.0000 0.0000 19.0000
v 24.0000 -2.0000 19.0000
v 12.0000 -2.0000 19.0000
v 12.0000 -1.1459 22.5267
v 24.0000 -1.1459 22.5267
v 24.0000 -2.7639 21.3511
v 12.0000 -2.7639 21.3511
v 12.0000 -4.1459 24.7063
v 24.0000 -4.1459 24.7063
v 24.0000 -4.7639 22.8042
v 12.0000 -4.7639 22.8042
v 12.0000 -7.8541 24.7063
v 24.0000 -7.8541 24.7063
v 24.0000 -7.2361 22.8042
v 12.0000 -7.2361 22.8042
v 12.0000 -10.8541 22.5267
v 24.0000 -10.8541 22.5267
v 24.0000 -9.2361 21.3511
v 12.0000 -9.2361 21.3511
v 12.0000 -12.0000 19.0000
v 24.0000 -12.0000 19.0000
v 24.0000 -10.0000 19.0000
v 12.0000 -10.0000 19.0000
v 12.0000 -12.0000 14.2500
v 24.0000 -12.0000 14.2500
v 24.0000 -10.0000 14.2500
v 12.0000 -10.0000 14.2500
v 12.0000 -12.0000 9.5000
v 24.0000 -12.0000 9.5000
v 24.0000 -10.0000 9.5000
v 12.0000 -10.0000 9.5000
v 12.0000 -12.0000 4.7500
v 24.0000 -12.0000 4.7500
v 24.0000 -10.0000 4.7500
v 12.0000 -10.0000 4.7500
v 12.0000 -12.0000 0.0000
v 24.0000 -12.0000 0.0000
v 24.0000 -10.0000 0.0000
v 12.0000 -10.0000 0.0000
v 12.0000 -12.0000 -4.7500
v 24.0000 -12.0000 -4.7500
v 24.0000 -10.0000 -4.7500
v 12.0000 -10.0000 -4.7500
v 12.0000 -12.0000 -9.5000
v 24.0000 -12.0000 -9.5000
v 24.0000 -10.0000 -9.5000
v 12.0000 -10.0000 -9.5000
v 12.0000 -12.0000 -14.2500
v 24.0000 -12.0000 -14.2500
v 24.0000 -10.0000 -14.2500
v 12.0000 -10.0000 -14.2500
v 12.0000 -12.0000 -19.0000
v 24.0000 -12.0000 -19.0000
v 24.0000 -10.0000 -19.0000
v 12.0000 -10.0000 -19.0000
v 12.0000 -10.8541 -22.5267
v 24.0000 -10.8541 -22.5267
v 24.0000 -9.2361 -21.3511
v 12.0000 -9.2361 -21.3511
v 12.0000 -7.8541 -24.7063
v 24.0000 -7.8541 -24.7063
v 24.0000 -7.2361 -22.8042
v 12.0000 -7.2361 -22.8042
v 12.0000 -4.1459 -24.7063
v 24.0000 -4.1459 -24.7063
v 24.0000 -4.7639 -22.8042
v 12.0000 -4.7639 -22.8042
v 12.0000 -1.1459 -22.5267
v 24.0000 -1.1459 -22.5267
v 24.0000 -2.7639 -21.3511
v 12.0000 -2.7639 -21.3511
v 14.0000 4.0000 0.0000
v 14.0000 3.4641 2.0000
v 22.0000 3.4641 2.0000
v 22.0000 4.0000 0.0000
v 14.0000 2.0000 3.4641
v 22.0000 2.0000 3.4641
v 14.0000 0.0000 4.0000
v 22.0000 0.0000 4.0000
v 14.0000 -2.0000 3.4641
v 22.0000 -2.0000 3.4641
v 14.0000 -3.4641 2.0000
v 22.0000 -3.4641 2.0000
v 14.0000 -4.0000 0.0000
v 22.0000 -4.0000 0.0000
v 14.0000 -3.4641 -2.0000
v 22.0000 -3.4641 -2.0000
v 14.0000 -2.0000 -3.4641
v 22.0000 -2.0000 -3.4641
v 14.0000 -0.0000 -4.0000
v 22.0000 -0.0000 -4.0000
v 14.0000 2.0000 -3.4641
v 22.0000 2.0000 -3.4641
v 14.0000 3.4641 -2.0000
v 22.0000 3.4641 -2.0000
v 14.5000 3.0000 0.0000
v 14.5000 2.1213 2.1213
v 21.5000 2.1213 2.1213
v 21.5000 3.0000 0.0000
v 14.5000 0.0000 3.0000
v 21.5000 0.0000 3.0000
v 14.5000 -2.1213 2.1213
v 21.5000 -2.1213 2.1213
v 14.5000 -3.0000 0.0000
v 21.5000 -3.0000 0.0000
v 14.5000 -2.1213 -2.1213
v 21.5000 -2.1213 -2.1213
v 14.5000 -0.0000 -3.0000
v 21.5000 -0.0000 -3.0000
v 14.5000 2.1213 -2.1213
v 21.5000 2.1213 -2.1213
v -24.0000 0.0000 -19.0000
v -24.0000 0.0000 -14.2500
v -12.0000 0.0000 -14.2500
v -12.0000 0.0000 -19.0000
v -12.0000 -2.0000 -19.0000
v -12.0000 -2.0000 -14.2500
v -24.0000 -2.0000 -14.2500
v -24.0000 -2.0000 -19.0000
v -24.0000 0.0000 -9.5000
v -12.0000 0.0000 -9.5000
v -12.0000 -2.0000 -9.5000
v -24.0000 -2.0000 -9.5000
v -24.0000 0.0000 -4.7500
v -12.0000 0.0000 -4.7500
v -12.0000 -2.0000 -4.7500
v -24.0000 -2.0000 -4.7500
v -24.0000 0.0000 0.0000
v -12.0000 0.0000 0.0000
v -12.0000 -2.0000 0.0000
v -24.0000 -2.0000 0.0000
v -24.0000 0.0000 4.7500
v -12.0000 0.0000 4.7500
v -12.0000 -2.0000 4.7500
v -24.0000 -2.0000 4.7500
v -24.0000 0.0000 9.5000
v -12.0000 0.0000 9.5000
v -12.0000 -2.0000 9.5000
v -24.0000 -2.0000 9.5000
v -24.0000 0.0000 14.2500
v -12.0000 0.0000 14.2500
v -12.0000 -2.0000 14.2500
v -24.0000 -2.0000 14.2500
v -24.0000 0.0000 19.0000
v -12.0000 0.0000 19.0000
v -12.0000 -2.0000 19.0000
v -24.0000 -2.0000 19.0000
v -24.0000 -1.1459 22.5267
v -12.0000 -1.1459 22.5267
v -12.0000 -2.7639 21.3511
v -24.0000 -2.7639 21.3511
v -24.0000 -4.1459 24.7063
v -12.0000 -4.1459 24.7063
v -12.0000 -4.7639 22.8042
v -24.0000 -4.7639 22.8042
v -24.0000 -7.8541 24.7063
v -12.0000 -7.8541 24.7063
v -12.0000 -7.2361 22.8042
v -24.0000 -7.2361 22.8042
v -24.0000 -10.8541 22.5267
v -12.0000 -10.8541 22.5267
v -12.0000 -9.2361 21.3511
v -24.0000 -9.2361 21.3511
v -24.0000 -12.0000 19.0000
v -12.0000 -12.0000 19.0000
v -12.0000 -10.0000 19.0000
v -24.0000 -10.0000 19.0000
v -24.0000 -12.0000 14.2500
v -12.0000 -12.0000 14.2500
v -12.0000 -10.0000 14.2500
v -24.0000 -10.0000 14.2500
v -24.0000 -12.0000 9.5000
v -12.0000 -12.0000 9.5000
v -12.0000 -10.0000 9.5000
v -24.0000 -10.0000 9.5000
v -24.0000 -12.0000 4.7500
v -12.0000 -12.0000 4.7500
v -12.0000 -10.0000 4.7500
v -24.0000 -10.0000 4.7500
v -24.0000 -12.0000 0.0000
v -12.0000 -12.0000 0.0000
v -12.0000 -10.0000 0.0000
v -24.0000 -10.0000 0.0000
v -24.0000 -12.0000 -4.7500
v -12.0000 -12.0000 -4.7500
v -12.0000 -10.0000 -4.7500
v -24.0000 -10.0000 -4.7500
v -24.0000 -12.0000 -9.5000
v -12.0000 -12.0000 -9.5000
v -12.0000 -10.0000 -9.5000
v -24.0000 -10.0000 -9.5000
v -24.0000 -12.0000 -14.2500
v -12.0000 -12.0000 -14.2500
v -12.0000 -10.0000 -14.2500
v -24.0000 -10.0000 -14.2500
v -24.0000 -12.0000 -19.0000
v -12.0000 -12.0000 -19.0000
v -12.0000 -10.0000 -19.0000
v -24.0000 -10.0000 -19.0000
v -24.0000 -10.8541 -22.5267
v -12.0000 -10.8541 -22.5267
v -12.0000 -9.2361 -21.3511
v -24.0000 -9.2361 -21.3511
v -24.0000 -7.8541 -24.7063
v -12.0000 -7.8541 -24.7063
v -12.0000 -7.2361 -22.8042
v -24.0000 -7.2361 -22.8042
v -24.0000 -4.1459 -24.7063
v -12.0000 -4.1459 -24.7063
v -12.0000 -4.7639 -22.8042
v -24.0000 -4.7639 -22.8042
v -24.0000 -1.1459 -22.5267
v -12.0000 -1.1459 -22.5267
v -12.0000 -2.7639 -21.3511
v -24.0000 -2.7639 -21.3511
v -22.0000 4.0000 0.0000
v -22.0000 3.4641 2.0000
v -14.0000 3.4641 2.0000
v -14.0000 4.0000 0.0000
v -22.0000 2.0000 3.4641
v -14.0000 2.0000 3.4641
v -22.0000 0.0000 4.0000
v -14.0000 0.0000 4.0000
v -22.0000 -2.0000 3.4641
v -14.0000 -2.0000 3.4641
v -22.0000 -3.4641 2.0000
v -14.0000 -3.4641 2.0000
v -22.0000 -4.0000 0.0000
v -14.0000 -4.0000 0.0000
v -22.0000 -3.4641 -2.0000
v -14.0000 -3.4641 -2.0000
v -22.0000 -2.0000 -3.4641
v -14.0000 -2.0000 -3.4641
v -22.0000 -0.0000 -4.0000
v -14.0000 -0.0000 -4.0000
v -22.0000 2.0000 -3.4641
v -14.0000 2.0000 -3.4641
v -22.0000 3.4641 -2.0000
v -14.0000 3.4641 -2.0000
v -21.5000 3.0000 0.0000
v -21.5000 2.1213 2.1213
v -14.5000 2.1213 2.1213
v -14.5000 3.0000 0.0000
v -21.5000 0.0000 3.0000
v -14.5000 0.0000 3.0000
v -21.5000 -2.1213 2.1213
v -14.5000 -2.1213 2.1213
v -21.5000 -3.0000 0.0000
v -14.5000 -3.0000 0.0000
v -21.5000 -2.1213 -2.1213
v -14.5000 -2.1213 -2.1213
v -21.5000 -0.0000 -3.0000
v -14.5000 -0.0000 -3.0000
v -21.5000 2.1213 -2.1213
v -14.5000 2.1213 -2.1213
v 14.0000 -3.0000 12.0000
v 14.0000 -3.0000 -18.0000
v 14.0000 0.0000 -18.0000
v 14.0000 0.0000 12.0000
v -14.0000 -3.0000 -18.0000
v -14.0000 -3.0000 12.0000
v -14.0000 0.0000 12.0000
v -14.0000 0.0000 -18.0000
v 13.0000 -15.0000 22.0000
v 13.0000 -15.0000 12.0000
v 13.0000 0.0000 12.0000
v 13.0000 0.0000 22.0000
v -13.0000 -15.0000 12.0000
v -13.0000 -15.0000 22.0000
v -13.0000 0.0000 22.0000
v -13.0000 0.0000 12.0000
v 11.0000 -17.0000 22.0000
v 13.0000 -18.0000 12.0000
v 11.0000 -15.0000 22.0000
v -13.0000 -18.0000 12.0000
v -11.0000 -17.0000 22.0000
v -11.0000 -15.0000 22.0000
v 0.0000 -14.0000 12.0000
v 0.0000 -14.0000 -2.0000
v 0.0000 -3.0000 -2.0000
v 0.0000 -3.0000 12.0000
v -14.0000 -14.0000 -2.0000
v -14.0000 -14.0000 12.0000
v -14.0000 -3.0000 -2.0000
v -2.0000 -15.0000 9.0000
v -2.0000 -15.0000 1.0000
v -2.0000 -14.0000 1.0000
v -2.0000 -14.0000 9.0000
v -8.0000 -15.0000 1.0000
v -8.0000 -15.0000 9.0000
v -8.0000 -14.0000 9.0000
v -8.0000 -14.0000 1.0000
v 0.1000 -9.0000 -2.0000
v 0.1000 -9.0000 -18.0000
v 0.1000 -3.0000 -18.0000
v 0.1000 -3.0000 -2.0000
v -14.0000 -9.0000 -18.0000
v -14.0000 -9.0000 -2.0000
v 14.0000 -9.0000 12.0000
v 14.0000 -9.0000 5.0000
v 14.0000 -3.0000 5.0000
v 1.0000 -9.0000 5.0000
v 1.0000 -9.0000 12.0000
v 1.0000 -3.0000 12.0000
v 1.0000 -3.0000 5.0000
v 15.0000 -14.0000 5.0000
v 15.0000 -14.0000 -14.0000
v 15.0000 -2.9000 -14.0000
v 15.0000 -2.9000 5.0000
v 0.0000 -14.0000 -14.0000
v 0.0000 -14.0000 5.0000
v 0.0000 -2.9000 5.0000
v 0.0000 -2.9000 -14.0000
v -6.5000 -13.0000 -8.0000
v -6.5000 -13.0000 -19.0000
v -6.5000 -2.9000 -19.0000
v -6.5000 -2.9000 -8.0000
v -9.5000 -13.0000 -19.0000
v -9.5000 -13.0000 -8.0000
v -9.5000 -2.9000 -8.0000
v -9.5000 -2.9000 -19.0000
v -0.5000 -13.0000 -8.0000
v -0.5000 -13.0000 -19.0000
v -0.5000 -2.9000 -19.0000
v -0.5000 -2.9000 -8.0000
v -3.5000 -13.0000 -19.0000
v -3.5000 -13.0000 -8.0000
v -3.5000 -2.9000 -8.0000
v -3.5000 -2.9000 -19.0000
v -10.5000 -24.0000 7.9000
v -9.5100 -24.0000 7.4900
v -9.5100 -13.0000 7.4900
v -10.5000 -13.0000 7.9000
v -9.1000 -24.0000 6.5000
v -9.1000 -13.0000 6.5000
v -9.5100 -24.0000 5.5100
v -9.5100 -13.0000 5.5100
v -10.5000 -24.0000 5.1000
v -10.5000 -13.0000 5.1000
v -11.4900 -24.0000 5.5100
v -11.4900 -13.0000 5.5100
v -11.9000 -24.0000 6.5000
v -11.9000 -13.0000 6.5000
v -11.4900 -24.0000 7.4900
v -11.4900 -13.0000 7.4900
v -10.5000 -25.4000 8.5000
v -9.0858 -25.4000 7.9142
v -9.0858 -23.4000 7.9142
v -10.5000 -23.4000 8.5000
v -8.5000 -25.4000 6.5000
v -8.5000 -23.4000 6.5000
v -9.0858 -25.4000 5.0858
v -9.0858 -23.4000 5.0858
v -10.5000 -25.4000 4.5000
v -10.5000 -23.4000 4.5000
v -11.9142 -25.4000 5.0858
v -11.9142 -23.4000 5.0858
v -12.5000 -25.4000 6.5000
v -12.5000 -23.4000 6.5000
v -11.9142 -25.4000 7.9142
v -11.9142 -23.4000 7.9142
v 15.0000 -16.0000 4.0000
v 15.0000 -16.0000 -14.0000
v 15.0000 -14.0000 4.0000
v 1.0000 -16.0000 -14.0000
v 1.0000 -16.0000 4.0000
v 1.0000 -14.0000 4.0000
v 1.0000 -14.0000 -14.0000
v 15.5000 -32.0000 4.5000
v 15.5000 -32.0000 -14.5000
v 15.5000 -30.0000 -14.5000
v 15.5000 -30.0000 4.5000
v 0.5000 -32.0000 -14.5000
v 0.5000 -32.0000 4.5000
v 0.5000 -30.0000 4.5000
v 0.5000 -30.0000 -14.5000
v 3.0000 -30.0000 -12.0000
v 3.0000 -30.0000 -14.0000
v 3.0000 -16.0000 -14.0000
v 3.0000 -16.0000 -12.0000
v 1.0000 -30.0000 -14.0000
v 1.0000 -30.0000 -12.0000
v 1.0000 -16.0000 -12.0000
v 3.0000 -30.0000 4.0000
v 3.0000 -30.0000 2.0000
v 3.0000 -16.0000 2.0000
v 3.0000 -16.0000 4.0000
v 1.0000 -30.0000 2.0000
v 1.0000 -30.0000 4.0000
v 1.0000 -16.0000 2.0000
v 15.0000 -30.0000 -12.0000
v 15.0000 -30.0000 -14.0000
v 15.0000 -16.0000 -12.0000
v 13.0000 -30.0000 -14.0000
v 13.0000 -30.0000 -12.0000
v 13.0000 -16.0000 -12.0000
v 13.0000 -16.0000 -14.0000
v 15.0000 -30.0000 4.0000
v 15.0000 -30.0000 2.0000
v 15.0000 -16.0000 2.0000
v 13.0000 -30.0000 2.0000
v 13.0000 -30.0000 4.0000
v 13.0000 -16.0000 4.0000
v 13.0000 -16.0000 2.0000
v 13.0000 -22.0000 4.0000
v 13.0000 -22.0000 2.0000
v 3.0000 -22.0000 2.0000
v 3.0000 -22.0000 4.0000
v 13.0000 -30.0000 3.6000
v 13.0000 -30.0000 2.9000
v 13.0000 -22.0000 2.9000
v 13.0000 -22.0000 3.6000
v 3.0000 -30.0000 2.9000
v 3.0000 -30.0000 3.6000
v 3.0000 -22.0000 3.6000
v 3.0000 -22.0000 2.9000
v 2.5000 -24.0000 2.0000
v 2.5000 -24.0000 -12.0000
v 2.5000 -16.0000 -12.0000
v 2.5000 -16.0000 2.0000
v 1.0000 -24.0000 -12.0000
v 1.0000 -24.0000 2.0000
v 2.1000 -30.0000 2.0000
v 2.1000 -30.0000 -12.0000
v 2.1000 -24.0000 -12.0000
v 2.1000 -24.0000 2.0000
v 1.4000 -30.0000 -12.0000
v 1.4000 -30.0000 2.0000
v 1.4000 -24.0000 2.0000
v 1.4000 -24.0000 -12.0000
v 13.0000 -30.0000 -12.9000
v 13.0000 -30.0000 -13.6000
v 13.0000 -16.0000 -13.6000
v 13.0000 -16.0000 -12.9000
v 3.0000 -30.0000 -13.6000
v 3.0000 -30.0000 -12.9000
v 3.0000 -16.0000 -12.9000
v 3.0000 -16.0000 -13.6000
v 14.6000 -30.0000 2.0000
v 14.6000 -30.0000 -12.0000
v 14.6000 -22.0000 -12.0000
v 14.6000 -22.0000 2.0000
v 13.9000 -30.0000 -12.0000
v 13.9000 -30.0000 2.0000
v 13.9000 -22.0000 2.0000
v 13.9000 -22.0000 -12.0000
v 15.0000 -22.0000 2.0000
v 15.0000 -22.0000 -12.0000
v 13.5000 -22.0000 -12.0000
v 13.5000 -22.0000 2.0000
v 13.5000 -16.0000 2.0000
v 13.5000 -16.0000 -12.0000
v 15.6000 -23.0000 1.0000
v 15.6000 -23.0000 -1.0000
v 15.6000 -21.5000 -1.0000
v 15.6000 -21.5000 1.0000
v 15.0000 -23.0000 -1.0000
v 15.0000 -23.0000 1.0000
v 15.0000 -21.5000 1.0000
v 15.0000 -21.5000 -1.0000
v 11.0000 -19.0000 -2.0000
v 11.0000 -19.0000 -6.0000
v 11.0000 -16.0000 -6.0000
v 11.0000 -16.0000 -2.0000
v 5.0000 -19.0000 -6.0000
v 5.0000 -19.0000 -2.0000
v 5.0000 -16.0000 -2.0000
v 5.0000 -16.0000 -6.0000
v 11.0000 -25.0000 0.0000
v 11.0000 -25.0000 -2.0000
v 11.0000 -19.0000 0.0000
v 5.0000 -25.0000 -2.0000
v 5.0000 -25.0000 0.0000
v 5.0000 -19.0000 0.0000
v 6.0000 -31.5000 -14.5000
v 6.0000 -31.5000 -15.5000
v 6.0000 -29.5000 -15.5000
v 6.0000 -29.5000 -14.5000
v 3.0000 -31.5000 -15.5000
v 3.0000 -31.5000 -14.5000
v 3.0000 -29.5000 -14.5000
v 3.0000 -29.5000 -15.5000
v 13.0000 -31.5000 -14.5000
v 13.0000 -31.5000 -15.5000
v 13.0000 -29.5000 -15.5000
v 13.0000 -29.5000 -14.5000
v 10.0000 -31.5000 -15.5000
v 10.0000 -31.5000 -14.5000
v 10.0000 -29.5000 -14.5000
v 10.0000 -29.5000 -15.5000
v 8.0000 -34.5000 3.1000
v 8.7778 -34.5000 2.7778
v 8.7778 -31.5000 2.7778
v 8.0000 -31.5000 3.1000
v 9.1000 -34.5000 2.0000
v 9.1000 -31.5000 2.0000
v 8.7778 -34.5000 1.2222
v 8.7778 -31.5000 1.2222
v 8.0000 -34.5000 0.9000
v 8.0000 -31.5000 0.9000
v 7.2222 -34.5000 1.2222
v 7.2222 -31.5000 1.2222
v 6.9000 -34.5000 2.0000
v 6.9000 -31.5000 2.0000
v 7.2222 -34.5000 2.7778
v 7.2222 -31.5000 2.7778
v -12.5000 -15.0000 -15.0000
v -12.5000 -15.0000 -16.0000
v -12.5000 -8.9000 -16.0000
v -12.5000 -8.9000 -15.0000
v -13.5000 -15.0000 -16.0000
v -13.5000 -15.0000 -15.0000
v -13.5000 -8.9000 -15.0000
v -13.5000 -8.9000 -16.0000
v -12.5000 -15.0000 -5.0000
v -12.5000 -15.0000 -6.0000
v -12.5000 -8.9000 -6.0000
v -12.5000 -8.9000 -5.0000
v -13.5000 -15.0000 -6.0000
v -13.5000 -15.0000 -5.0000
v -13.5000 -8.9000 -5.0000
v -13.5000 -8.9000 -6.0000
v -12.4000 -15.1000 -4.9000
v -12.4000 -15.1000 -16.1000
v -12.4000 -14.0000 -16.1000
v -12.4000 -14.0000 -4.9000
v -13.6000 -15.1000 -16.1000
v -13.6000 -15.1000 -4.9000
v -13.6000 -14.0000 -4.9000
v -13.6000 -14.0000 -16.1000
v -12.5000 -20.0000 3.0000
v -12.5000 -20.0000 2.0000
v -12.5000 -13.9000 2.0000
v -12.5000 -13.9000 3.0000
v -13.5000 -20.0000 2.0000
v -13.5000 -20.0000 3.0000
v -13.5000 -13.9000 3.0000
v -13.5000 -13.9000 2.0000
v -12.5000 -20.0000 11.0000
v -12.5000 -20.0000 10.0000
v -12.5000 -13.9000 10.0000
v -12.5000 -13.9000 11.0000
v -13.5000 -20.0000 10.0000
v -13.5000 -20.0000 11.0000
v -13.5000 -13.9000 11.0000
v -13.5000 -13.9000 10.0000
v -12.4000 -20.1000 11.1000
v -12.4000 -20.1000 1.9000
v -12.4000 -19.0000 1.9000
v -12.4000 -19.0000 11.1000
v -13.6000 -20.1000 1.9000
v -13.6000 -20.1000 11.1000
v -13.6000 -19.0000 11.1000
v -13.6000 -19.0000 1.9000
v 16.0000 -2.0000 -6.0000
v 16.0000 -2.0000 -12.0000
v 16.0000 -1.0000 -12.0000
v 16.0000 -1.0000 -6.0000
v 14.0000 -2.0000 -12.0000
v 14.0000 -2.0000 -6.0000
v 14.0000 -1.0000 -6.0000
v 14.0000 -1.0000 -12.0000
v -14.4000 -12.0000 2.0000
v -14.4000 -12.0000 12.0000
v -14.4000 -8.0000 12.0000
v -14.4000 -8.0000 2.0000
v -14.0000 -12.0000 12.0000
v -14.0000 -12.0000 2.0000
v -14.0000 -8.0000 2.0000
v -14.0000 -8.0000 12.0000
v 4.5000 -5.0000 2.0000
v 3.5000 -4.0000 -26.0000
v 3.5000 4.0000 -26.0000
v 4.5000 5.0000 2.0000
v -3.5000 -4.0000 -26.0000
v -4.5000 -5.0000 2.0000
v -4.5000 5.0000 2.0000
v -3.5000 4.0000 -26.0000
v -5.0000 4.5000 0.0000
v -5.0000 3.8971 2.2500
v 5.0000 3.8971 2.2500
v 5.0000 4.5000 0.0000
v -5.0000 2.2500 3.8971
v 5.0000 2.2500 3.8971
v -5.0000 0.0000 4.5000
v 5.0000 0.0000 4.5000
v -5.0000 -2.2500 3.8971
v 5.0000 -2.2500 3.8971
v -5.0000 -3.8971 2.2500
v 5.0000 -3.8971 2.2500
v -5.0000 -4.5000 0.0000
v 5.0000 -4.5000 0.0000
v -5.0000 -3.8971 -2.2500
v 5.0000 -3.8971 -2.2500
v -5.0000 -2.2500 -3.8971
v 5.0000 -2.2500 -3.8971
v -5.0000 -0.0000 -4.5000
v 5.0000 -0.0000 -4.5000
v -5.0000 2.2500 -3.8971
v 5.0000 2.2500 -3.8971
v -5.0000 3.8971 -2.2500
v 5.0000 3.8971 -2.2500
v -4.1250 3.5000 -26.0000
v -4.1250 3.0311 -24.2500
v 4.1250 3.0311 -24.2500
v 4.1250 3.5000 -26.0000
v -4.1250 1.7500 -22.9689
v 4.1250 1.7500 -22.9689
v -4.1250 0.0000 -22.5000
v 4.1250 0.0000 -22.5000
v -4.1250 -1.7500 -22.9689
v 4.1250 -1.7500 -22.9689
v -4.1250 -3.0311 -24.2500
v 4.1250 -3.0311 -24.2500
v -4.1250 -3.5000 -26.0000
v 4.1250 -3.5000 -26.0000
v -4.1250 -3.0311 -27.7500
v 4.1250 -3.0311 -27.7500
v -4.1250 -1.7500 -29.0311
v 4.1250 -1.7500 -29.0311
v -4.1250 -0.0000 -29.5000
v 4.1250 -0.0000 -29.5000
v -4.1250 1.7500 -29.0311
v 4.1250 1.7500 -29.0311
v -4.1250 3.0311 -27.7500
v 4.1250 3.0311 -27.7500
v 3.0000 -8.0000 0.0000
v 3.0000 -8.0000 -4.0000
v 3.0000 -3.0000 -4.0000
v 3.0000 -3.0000 0.0000
v -3.0000 -8.0000 -4.0000
v -3.0000 -8.0000 0.0000
v -3.0000 -3.0000 0.0000
v -3.0000 -3.0000 -4.0000
v 2.0000 -5.6286 -14.0000
v 1.4142 -4.2144 -14.0000
v 1.4142 -4.2144 -4.0000
v 2.0000 -5.6286 -4.0000
v 0.0000 -3.6286 -14.0000
v 0.0000 -3.6286 -4.0000
v -1.4142 -4.2144 -14.0000
v -1.4142 -4.2144 -4.0000
v -2.0000 -5.6286 -14.0000
v -2.0000 -5.6286 -4.0000
v -1.4142 -7.0428 -14.0000
v -1.4142 -7.0428 -4.0000
v -0.0000 -7.6286 -14.0000
v -0.0000 -7.6286 -4.0000
v 1.4142 -7.0428 -14.0000
v 1.4142 -7.0428 -4.0000
v 1.1000 -5.6286 -21.0000
v 0.7778 -4.8507 -21.0000
v 0.7778 -4.8507 -13.5000
v 1.1000 -5.6286 -13.5000
v 0.0000 -4.5286 -21.0000
v 0.0000 -4.5286 -13.5000
v -0.7778 -4.8507 -21.0000
v -0.7778 -4.8507 -13.5000
v -1.1000 -5.6286 -21.0000
v -1.1000 -5.6286 -13.5000
v -0.7778 -6.4064 -21.0000
v -0.7778 -6.4064 -13.5000
v -0.0000 -6.7286 -21.0000
v -0.0000 -6.7286 -13.5000
v 0.7778 -6.4064 -21.0000
v 0.7778 -6.4064 -13.5000
v 2.2000 5.9000 -12.0000
v 1.5556 7.4556 -12.0000
v 1.5556 7.4556 -1.0000
v 2.2000 5.9000 -1.0000
v 0.0000 8.1000 -12.0000
v 0.0000 8.1000 -1.0000
v -1.5556 7.4556 -12.0000
v -1.5556 7.4556 -1.0000
v -2.2000 5.9000 -12.0000
v -2.2000 5.9000 -1.0000
v -1.5556 4.3444 -12.0000
v -1.5556 4.3444 -1.0000
v -0.0000 3.7000 -12.0000
v -0.0000 3.7000 -1.0000
v 1.5556 4.3444 -12.0000
v 1.5556 4.3444 -1.0000
v -3.9571 -2.5000 -2.0000
v -3.2429 -2.5000 -22.0000
v -3.2429 0.5000 -22.0000
v -3.9571 0.5000 -2.0000
v -4.4429 -2.5000 -22.0000
v -5.1571 -2.5000 -2.0000
v -5.1571 0.5000 -2.0000
v -4.4429 0.5000 -22.0000
v 3.5000 -4.0000 2.0000
v 2.7500 -3.0000 -20.0000
v 2.7500 3.0000 -20.0000
v 3.5000 4.0000 2.0000
v -2.7500 -3.0000 -20.0000
v -3.5000 -4.0000 2.0000
v -3.5000 4.0000 2.0000
v -2.7500 3.0000 -20.0000
v -4.0000 3.6000 0.0000
v -4.0000 3.1177 1.8000
v 4.0000 3.1177 1.8000
v 4.0000 3.6000 0.0000
v -4.0000 1.8000 3.1177
v 4.0000 1.8000 3.1177
v -4.0000 0.0000 3.6000
v 4.0000 0.0000 3.6000
v -4.0000 -1.8000 3.1177
v 4.0000 -1.8000 3.1177
v -4.0000 -3.1177 1.8000
v 4.0000 -3.1177 1.8000
v -4.0000 -3.6000 0.0000
v 4.0000 -3.6000 0.0000
v -4.0000 -3.1177 -1.8000
v 4.0000 -3.1177 -1.8000
v -4.0000 -1.8000 -3.1177
v 4.0000 -1.8000 -3.1177
v -4.0000 -0.0000 -3.6000
v 4.0000 -0.0000 -3.6000
v -4.0000 1.8000 -3.1177
v 4.0000 1.8000 -3.1177
v -4.0000 3.1177 -1.8000
v 4.0000 3.1177 -1.8000
v -3.3386 2.6000 -20.0000
v -3.3386 2.2517 -18.7000
v 3.3386 2.2517 -18.7000
v 3.3386 2.6000 -20.0000
v -3.3386 1.3000 -17.7483
v 3.3386 1.3000 -17.7483
v -3.3386 0.0000 -17.4000
v 3.3386 0.0000 -17.4000
v -3.3386 -1.3000 -17.7483
v 3.3386 -1.3000 -17.7483
v -3.3386 -2.2517 -18.7000
v 3.3386 -2.2517 -18.7000
v -3.3386 -2.6000 -20.0000
v 3.3386 -2.6000 -20.0000
v -3.3386 -2.2517 -21.3000
v 3.3386 -2.2517 -21.3000
v -3.3386 -1.3000 -22.2517
v 3.3386 -1.3000 -22.2517
v -3.3386 -0.0000 -22.6000
v 3.3386 -0.0000 -22.6000
v -3.3386 1.3000 -22.2517
v 3.3386 1.3000 -22.2517
v -3.3386 2.2517 -21.3000
v 3.3386 2.2517 -21.3000
v 1.8000 -4.3636 -12.0000
v 1.2728 -3.0908 -12.0000
v 1.2728 -3.0908 -3.0000
v 1.8000 -4.3636 -3.0000
v 0.0000 -2.5636 -12.0000
v 0.0000 -2.5636 -3.0000
v -1.2728 -3.0908 -12.0000
v -1.2728 -3.0908 -3.0000
v -1.8000 -4.3636 -12.0000
v -1.8000 -4.3636 -3.0000
v -1.2728 -5.6364 -12.0000
v -1.2728 -5.6364 -3.0000
v -0.0000 -6.1636 -12.0000
v -0.0000 -6.1636 -3.0000
v 1.2728 -5.6364 -12.0000
v 1.2728 -5.6364 -3.0000
v 1.0000 -4.3636 -17.0000
v 0.7071 -3.6565 -17.0000
v 0.7071 -3.6565 -11.5000
v 1.0000 -4.3636 -11.5000
v 0.0000 -3.3636 -17.0000
v 0.0000 -3.3636 -11.5000
v -0.7071 -3.6565 -17.0000
v -0.7071 -3.6565 -11.5000
v -1.0000 -4.3636 -17.0000
v -1.0000 -4.3636 -11.5000
v -0.7071 -5.0707 -17.0000
v -0.7071 -5.0707 -11.5000
v -0.0000 -5.3636 -17.0000
v -0.0000 -5.3636 -11.5000
v 0.7071 -5.0707 -17.0000
v 0.7071 -5.0707 -11.5000
v -2.0000 -6.0000 -14.0000
v -2.0000 -3.0000 -19.0000
v -2.0000 0.5000 -19.0000
v -2.0000 -3.0000 -14.0000
v -3.2000 -3.0000 -19.0000
v -3.2000 -6.0000 -14.0000
v -3.2000 -3.0000 -14.0000
v -3.2000 0.5000 -19.0000
v 3.2000 -6.0000 -14.0000
v 3.2000 -3.0000 -19.0000
v 3.2000 0.5000 -19.0000
v 3.2000 -3.0000 -14.0000
v 2.0000 -3.0000 -19.0000
v 2.0000 -6.0000 -14.0000
v 2.0000 -3.0000 -14.0000
v 2.0000 0.5000 -19.0000
v 4.0000 -4.0000 1.0000
v 4.0000 -4.0000 -3.0000
v 4.0000 2.0000 -3.0000
v 4.0000 2.0000 1.0000
v -4.0000 -4.0000 -3.0000
v -4.0000 -4.0000 1.0000
v -4.0000 2.0000 1.0000
v -4.0000 2.0000 -3.0000
v -4.5000 2.4000 0.0000
v -4.5000 1.6971 1.6971
v 4.5000 1.6971 1.6971
v 4.5000 2.4000 0.0000
v -4.5000 0.0000 2.4000
v 4.5000 0.0000 2.4000
v -4.5000 -1.6971 1.6971
v 4.5000 -1.6971 1.6971
v -4.5000 -2.4000 0.0000
v 4.5000 -2.4000 0.0000
v -4.5000 -1.6971 -1.6971
v 4.5000 -1.6971 -1.6971
v -4.5000 -0.0000 -2.4000
v 4.5000 -0.0000 -2.4000
v -4.5000 1.6971 -1.6971
v 4.5000 1.6971 -1.6971
v 6.0000 -6.0000 -3.0000
v 7.0000 -7.0000 -6.0000
v 7.0000 -4.5000 -6.0000
v 6.0000 -3.0000 -3.0000
v -7.0000 -7.0000 -6.0000
v -6.0000 -6.0000 -3.0000
v -6.0000 -3.0000 -3.0000
v -7.0000 -4.5000 -6.0000
v 7.0000 -7.0000 -9.0000
v 7.0000 -3.0000 -9.0000
v -7.0000 -7.0000 -9.0000
v -7.0000 -3.0000 -9.0000
v 6.0000 -6.5000 -11.0000
v 6.0000 1.0000 -11.0000
v -6.0000 -6.5000 -11.0000
v -6.0000 1.0000 -11.0000
v -5.5000 -6.0000 -2.0000
v -5.5000 -7.0000 -12.0000
v -5.5000 3.0000 -12.0000
v -5.5000 2.0000 -2.0000
v -7.1000 -7.0000 -12.0000
v -7.1000 -6.0000 -2.0000
v -7.1000 2.0000 -2.0000
v -7.1000 3.0000 -12.0000
v 7.1000 -6.0000 -2.0000
v 7.1000 -7.0000 -12.0000
v 7.1000 3.0000 -12.0000
v 7.1000 2.0000 -2.0000
v 5.5000 -7.0000 -12.0000
v 5.5000 -6.0000 -2.0000
v 5.5000 2.0000 -2.0000
v 5.5000 3.0000 -12.0000
v 7.0000 -6.5000 -10.5000
v 7.0000 -6.5000 -12.5000
v 7.0000 1.0000 -12.5000
v 7.0000 1.0000 -10.5000
v -7.0000 -6.5000 -12.5000
v -7.0000 -6.5000 -10.5000
v -7.0000 1.0000 -10.5000
v -7.0000 1.0000 -12.5000
v -4.5000 -4.6000 -12.5000
v -4.8000 -3.4000 -15.0000
v -4.8000 -0.6000 -15.0000
v -4.5000 0.6000 -12.5000
v -6.4000 -3.4000 -15.0000
v -6.7000 -4.6000 -12.5000
v -6.7000 0.6000 -12.5000
v -6.4000 -0.6000 -15.0000
v -1.6000 -4.6000 -12.5000
v -1.9000 -3.4000 -15.0000
v -1.9000 -0.6000 -15.0000
v -1.6000 0.6000 -12.5000
v -3.5000 -3.4000 -15.0000
v -3.8000 -4.6000 -12.5000
v -3.8000 0.6000 -12.5000
v -3.5000 -0.6000 -15.0000
v 1.3000 -4.6000 -12.5000
v 1.0000 -3.4000 -15.0000
v 1.0000 -0.6000 -15.0000
v 1.3000 0.6000 -12.5000
v -0.6000 -3.4000 -15.0000
v -0.9000 -4.6000 -12.5000
v -0.9000 0.6000 -12.5000
v -0.6000 -0.6000 -15.0000
v 4.2000 -4.6000 -12.5000
v 3.9000 -3.4000 -15.0000
v 3.9000 -0.6000 -15.0000
v 4.2000 0.6000 -12.5000
v 2.3000 -3.4000 -15.0000
v 2.0000 -4.6000 -12.5000
v 2.0000 0.6000 -12.5000
v 2.3000 -0.6000 -15.0000
v 7.1000 -4.6000 -12.5000
v 6.8000 -3.4000 -15.0000
v 6.8000 -0.6000 -15.0000
v 7.1000 0.6000 -12.5000
v 5.2000 -3.4000 -15.0000
v 4.9000 -4.6000 -12.5000
v 4.9000 0.6000 -12.5000
v 5.2000 -0.6000 -15.0000
v 5.0000 -5.5000 -1.0000
v 4.5000 -5.0000 -9.0000
v 4.5000 5.0000 -9.0000
v 5.0000 5.5000 -1.0000
v -4.5000 -5.0000 -9.0000
v -5.0000 -5.5000 -1.0000
v -5.0000 5.5000 -1.0000
v -4.5000 5.0000 -9.0000
v 3.2000 0.0000 -12.5000
v 2.7713 1.6000 -12.5000
v 2.7713 1.6000 -8.5000
v 3.2000 0.0000 -8.5000
v 1.6000 2.7713 -12.5000
v 1.6000 2.7713 -8.5000
v 0.0000 3.2000 -12.5000
v 0.0000 3.2000 -8.5000
v -1.6000 2.7713 -12.5000
v -1.6000 2.7713 -8.5000
v -2.7713 1.6000 -12.5000
v -2.7713 1.6000 -8.5000
v -3.2000 0.0000 -12.5000
v -3.2000 0.0000 -8.5000
v -2.7713 -1.6000 -12.5000
v -2.7713 -1.6000 -8.5000
v -1.6000 -2.7713 -12.5000
v -1.6000 -2.7713 -8.5000
v -0.0000 -3.2000 -12.5000
v -0.0000 -3.2000 -8.5000
v 1.6000 -2.7713 -12.5000
v 1.6000 -2.7713 -8.5000
v 2.7713 -1.6000 -12.5000
v 2.7713 -1.6000 -8.5000
v 2.2000 -2.2000 -12.0000
v 1.0000 -1.0000 -17.0000
v 1.0000 1.0000 -17.0000
v 2.2000 2.2000 -12.0000
v -1.0000 -1.0000 -17.0000
v -2.2000 -2.2000 -12.0000
v -2.2000 2.2000 -12.0000
v -1.0000 1.0000 -17.0000
v -2.9000 3.0000 -4.5000
v -2.9000 2.5981 -3.0000
v 2.9000 2.5981 -3.0000
v 2.9000 3.0000 -4.5000
v -2.9000 1.5000 -1.9019
v 2.9000 1.5000 -1.9019
v -2.9000 0.0000 -1.5000
v 2.9000 0.0000 -1.5000
v -2.9000 -1.5000 -1.9019
v 2.9000 -1.5000 -1.9019
v -2.9000 -2.5981 -3.0000
v 2.9000 -2.5981 -3.0000
v -2.9000 -3.0000 -4.5000
v 2.9000 -3.0000 -4.5000
v -2.9000 -2.5981 -6.0000
v 2.9000 -2.5981 -6.0000
v -2.9000 -1.5000 -7.0981
v 2.9000 -1.5000 -7.0981
v -2.9000 -0.0000 -7.5000
v 2.9000 -0.0000 -7.5000
v -2.9000 1.5000 -7.0981
v 2.9000 1.5000 -7.0981
v -2.9000 2.5981 -6.0000
v 2.9000 2.5981 -6.0000
v 5.0000 -2.0000 -6.0000
v 5.0000 -2.0000 -8.0000
v 5.0000 2.0000 -8.0000
v 5.0000 2.0000 -6.0000
v -5.0000 -2.0000 -8.0000
v -5.0000 -2.0000 -6.0000
v -5.0000 2.0000 -6.0000
v -5.0000 2.0000 -8.0000
v 5.0000 -2.8000 -8.0000
v 4.5000 -7.0000 -12.0000
v 4.5000 -5.5000 -12.0000
v 5.0000 -1.2000 -8.0000
v -4.5000 -7.0000 -12.0000
v -5.0000 -2.8000 -8.0000
v -5.0000 -1.2000 -8.0000
v -4.5000 -5.5000 -12.0000
v 3.5000 -4.4000 -15.5000
v 3.5000 -3.0000 -15.5000
v -3.5000 -4.4000 -15.5000
v -3.5000 -3.0000 -15.5000
v 5.0000 1.2000 -8.0000
v 4.5000 5.5000 -12.0000
v 4.5000 7.0000 -12.0000
v 5.0000 2.8000 -8.0000
v -4.5000 5.5000 -12.0000
v -5.0000 1.2000 -8.0000
v -5.0000 2.8000 -8.0000
v -4.5000 7.0000 -12.0000
v 3.5000 3.0000 -15.5000
v 3.5000 4.4000 -15.5000
v -3.5000 3.0000 -15.5000
v -3.5000 4.4000 -15.5000

vt 0.500000 1.000000
vt 0.617188 1.000000
vt 0.617188 0.972656
vt 0.500000 0.972656
vt 0.593750 1.000000
vt 0.593750 0.972656
vt 0.593750 0.882812
vt 0.500000 0.882812
vt 0.750000 1.000000
vt 0.843750 1.000000
vt 0.843750 0.882812
vt 0.750000 0.882812
vt 0.523438 1.000000
vt 0.523438 0.980469
vt 0.500000 0.980469
vt 0.687500 1.000000
vt 0.687500 0.980469
vt 0.687500 0.976562
vt 0.500000 0.976562
vt 0.937500 1.000000
vt 0.937500 0.976562
vt 0.750000 0.976562
vt 0.000000 0.625000
vt 0.100781 0.625000
vt 0.100781 0.598411
vt 0.000000 0.598411
vt 0.075643 0.138449
vt 0.098408 0.151592
vt 0.111551 0.174357
vt 0.111551 0.200643
vt 0.098408 0.223408
vt 0.075643 0.236551
vt 0.049357 0.236551
vt 0.026592 0.223408
vt 0.013449 0.200643
vt 0.013449 0.174357
vt 0.026592 0.151592
vt 0.049357 0.138449
vt 0.648438 1.000000
vt 0.648438 0.972656
vt 0.539062 1.000000
vt 0.539062 0.972656
vt 0.539062 0.851562
vt 0.500000 0.851562
vt 0.789062 1.000000
vt 0.789062 0.851562
vt 0.750000 0.851562
vt 0.000000 1.000000
vt 0.093750 1.000000
vt 0.093750 0.992188
vt 0.000000 0.992188
vt 0.046094 1.000000
vt 0.046094 0.992188
vt 0.046094 0.906250
vt 0.000000 0.906250
vt 0.250000 1.000000
vt 0.296094 1.000000
vt 0.296094 0.906250
vt 0.250000 0.906250
vt 0.015625 0.625000
vt 0.015625 0.609375
vt 0.000000 0.609375
vt 0.039844 0.625000
vt 0.039844 0.609375
vt 0.789844 1.000000
vt 0.789844 0.984375
vt 0.750000 0.984375
vt 0.750000 0.750000
vt 0.750000 0.731445
vt 0.796875 0.731445
vt 0.796875 0.750000
vt 0.804688 0.750000
vt 0.804688 0.731445
vt 0.750000 0.735515
vt 0.796875 0.735515
vt 0.804688 0.735515
vt 0.812500 0.750000
vt 0.843750 0.750000
vt 0.843750 0.741819
vt 0.812500 0.741819
vt 0.687500 0.671875
vt 0.695312 0.673968
vt 0.701032 0.679688
vt 0.703125 0.687500
vt 0.701032 0.695312
vt 0.695312 0.701032
vt 0.687500 0.703125
vt 0.679688 0.701032
vt 0.673968 0.695312
vt 0.671875 0.687500
vt 0.673968 0.679688
vt 0.679688 0.673968
vt 0.839844 0.750000
vt 0.839844 0.740796
vt 0.812500 0.740796
vt 0.687500 0.675781
vt 0.695786 0.679214
vt 0.699219 0.687500
vt 0.695786 0.695786
vt 0.687500 0.699219
vt 0.679214 0.695786
vt 0.675781 0.687500
vt 0.679214 0.679214
vt 0.117188 1.000000
vt 0.117188 0.988281
vt 0.000000 0.988281
vt 0.109375 1.000000
vt 0.109375 0.988281
vt 0.500000 0.625000
vt 0.609375 0.625000
vt 0.609375 0.507812
vt 0.500000 0.507812
vt 0.859375 1.000000
vt 0.859375 0.882812
vt 0.500000 0.500000
vt 0.539062 0.500000
vt 0.539062 0.441406
vt 0.500000 0.441406
vt 0.000000 0.750000
vt 0.101562 0.750000
vt 0.101562 0.691406
vt 0.000000 0.691406
vt 0.851562 1.000000
vt 0.851562 0.941406
vt 0.750000 0.941406
vt 0.851562 0.960938
vt 0.750000 0.960938
vt 0.539062 0.488281
vt 0.500000 0.488281
vt 0.101562 0.738281
vt 0.000000 0.738281
vt 0.851562 0.988281
vt 0.750000 0.988281
vt 0.000000 0.500000
vt 0.054688 0.500000
vt 0.054688 0.457031
vt 0.000000 0.457031
vt 0.250000 0.750000
vt 0.304688 0.750000
vt 0.304688 0.707031
vt 0.250000 0.707031
vt 0.054688 1.000000
vt 0.054688 0.945312
vt 0.000000 0.945312
vt 0.804688 1.000000
vt 0.804688 0.945312
vt 0.750000 0.945312
vt 0.281250 0.750000
vt 0.281250 0.746094
vt 0.250000 0.746094
vt 0.273438 0.750000
vt 0.273438 0.746094
vt 0.375000 0.750000
vt 0.398438 0.750000
vt 0.398438 0.718750
vt 0.375000 0.718750
vt 0.773438 1.000000
vt 0.773438 0.968750
vt 0.750000 0.968750
vt 0.062500 1.000000
vt 0.062500 0.976562
vt 0.000000 0.976562
vt 0.055078 1.000000
vt 0.055078 0.976562
vt 0.555078 0.625000
vt 0.555078 0.562500
vt 0.500000 0.562500
vt 0.305078 1.000000
vt 0.305078 0.937500
vt 0.250000 0.937500
vt 0.027344 1.000000
vt 0.027344 0.976562
vt 0.050781 1.000000
vt 0.050781 0.976562
vt 0.550781 0.625000
vt 0.550781 0.597656
vt 0.500000 0.597656
vt 0.300781 1.000000
vt 0.300781 0.972656
vt 0.250000 0.972656
vt 0.074219 1.000000
vt 0.074219 0.956641
vt 0.000000 0.956641
vt 0.058594 1.000000
vt 0.058594 0.956641
vt 0.558594 0.625000
vt 0.558594 0.550781
vt 0.500000 0.550781
vt 0.308594 1.000000
vt 0.308594 0.925781
vt 0.250000 0.925781
vt 0.042969 0.625000
vt 0.042969 0.585547
vt 0.000000 0.585547
vt 0.011719 0.625000
vt 0.011719 0.585547
vt 0.011719 0.582031
vt 0.000000 0.582031
vt 0.761719 1.000000
vt 0.761719 0.957031
vt 0.750000 0.957031
vt 0.542969 1.000000
vt 0.542969 0.995705
vt 0.500000 0.995705
vt 0.875000 0.869531
vt 0.878867 0.871133
vt 0.880469 0.875000
vt 0.878867 0.878867
vt 0.875000 0.880469
vt 0.871133 0.878867
vt 0.869531 0.875000
vt 0.871133 0.871133
vt 0.757812 1.000000
vt 0.757812 0.993864
vt 0.750000 0.993864
vt 0.875000 0.867188
vt 0.880524 0.869476
vt 0.882812 0.875000
vt 0.880524 0.880524
vt 0.875000 0.882812
vt 0.869476 0.880524
vt 0.867188 0.875000
vt 0.869476 0.869476
vt 0.570312 1.000000
vt 0.570312 0.992188
vt 0.500000 0.992188
vt 0.554688 1.000000
vt 0.554688 0.992188
vt 0.554688 0.625000
vt 0.554688 0.554688
vt 0.500000 0.554688
vt 0.804688 0.929688
vt 0.750000 0.929688
vt 0.074219 0.992188
vt 0.058594 0.992188
vt 0.058594 0.925781
vt 0.000000 0.925781
vt 0.808594 1.000000
vt 0.808594 0.925781
vt 0.750000 0.925781
vt 0.007812 1.000000
vt 0.007812 0.945312
vt 0.007812 0.992188
vt 0.007812 0.976562
vt 0.250000 0.500000
vt 0.289062 0.500000
vt 0.289062 0.476562
vt 0.250000 0.476562
vt 0.039062 1.000000
vt 0.039062 0.992188
vt 0.500000 0.750000
vt 0.502734 0.750000
vt 0.502734 0.718750
vt 0.500000 0.718750
vt 0.539062 0.750000
vt 0.539062 0.718750
vt 0.539062 0.747266
vt 0.500000 0.747266
vt 0.054688 0.968750
vt 0.000000 0.968750
vt 0.005859 1.000000
vt 0.005859 0.968750
vt 0.005859 0.945312
vt 0.554688 0.750000
vt 0.554688 0.726562
vt 0.500000 0.726562
vt 0.502734 0.726562
vt 0.502734 0.695312
vt 0.500000 0.695312
vt 0.539062 0.695312
vt 0.554688 0.718750
vt 0.304688 0.500000
vt 0.304688 0.476562
vt 0.005859 0.976562
vt 0.255859 0.500000
vt 0.255859 0.445312
vt 0.250000 0.445312
vt 0.007812 0.625000
vt 0.007812 0.619141
vt 0.000000 0.619141
vt 0.002344 0.625000
vt 0.002344 0.619141
vt 0.002344 0.617188
vt 0.000000 0.617188
vt 0.812500 0.562500
vt 0.828125 0.562500
vt 0.828125 0.550781
vt 0.812500 0.550781
vt 0.835938 0.562500
vt 0.835938 0.550781
vt 0.835938 0.546875
vt 0.812500 0.546875
vt 0.820312 0.562500
vt 0.820312 0.539062
vt 0.812500 0.539062
vt 0.835938 0.539062
vt 0.835938 0.554688
vt 0.812500 0.554688
vt 0.812500 0.625000
vt 0.816406 0.625000
vt 0.816406 0.617188
vt 0.812500 0.617188
vt 0.761719 0.992188
vt 0.750000 0.992188
vt 0.824219 0.625000
vt 0.824219 0.621094
vt 0.812500 0.621094
vt 0.824219 0.621625
vt 0.812500 0.621625
vt 0.875000 0.870703
vt 0.878038 0.871962
vt 0.879297 0.875000
vt 0.878038 0.878038
vt 0.875000 0.879297
vt 0.871962 0.878038
vt 0.870703 0.875000
vt 0.871962 0.871962
vt 0.003906 0.625000
vt 0.003906 0.601172
vt 0.000000 0.601172
vt 0.003906 0.621094
vt 0.000000 0.621094
vt 0.043750 0.625000
vt 0.043750 0.620703
vt 0.000000 0.620703
vt 0.004687 0.625000
vt 0.004687 0.620703
vt 0.004687 0.581250
vt 0.000000 0.581250
vt 0.035937 0.625000
vt 0.035937 0.620703
vt 0.004687 0.589063
vt 0.000000 0.589063
vt 0.523438 0.625000
vt 0.523438 0.621094
vt 0.500000 0.621094
vt 0.507812 0.625000
vt 0.507812 0.621094
vt 0.507812 0.601562
vt 0.500000 0.601562
vt 0.757812 0.976562
vt 0.812500 0.687500
vt 0.851562 0.687500
vt 0.851562 0.671875
vt 0.812500 0.671875
vt 0.039062 0.625000
vt 0.039062 0.609375
vt 0.001563 0.625000
vt 0.001563 0.609375
vt 0.001563 0.585938
vt 0.000000 0.585938
vt 0.109375 0.960938
vt 0.000000 0.960938
vt 0.035156 1.000000
vt 0.035156 0.960938
vt 0.035156 0.890625
vt 0.000000 0.890625
vt 0.285156 1.000000
vt 0.285156 0.890625
vt 0.250000 0.890625
vt 0.039062 0.615796
vt 0.000000 0.615796
vt 0.062500 0.169922
vt 0.071289 0.172277
vt 0.077723 0.178711
vt 0.080078 0.187500
vt 0.077723 0.196289
vt 0.071289 0.202723
vt 0.062500 0.205078
vt 0.053711 0.202723
vt 0.047277 0.196289
vt 0.044922 0.187500
vt 0.047277 0.178711
vt 0.053711 0.172277
vt 0.032227 0.625000
vt 0.032227 0.617841
vt 0.000000 0.617841
vt 0.062500 0.173828
vt 0.069336 0.175660
vt 0.074340 0.180664
vt 0.076172 0.187500
vt 0.074340 0.194336
vt 0.069336 0.199340
vt 0.062500 0.201172
vt 0.055664 0.199340
vt 0.050660 0.194336
vt 0.048828 0.187500
vt 0.050660 0.180664
vt 0.055664 0.175660
vt 0.015625 0.605469
vt 0.000000 0.605469
vt 0.023438 0.625000
vt 0.023438 0.605469
vt 0.023438 0.609375
vt 0.539062 0.993864
vt 0.500000 0.993864
vt 0.029297 0.625000
vt 0.029297 0.621625
vt 0.000000 0.621625
vt 0.542969 0.993250
vt 0.500000 0.993250
vt 0.875000 0.866406
vt 0.881077 0.868923
vt 0.883594 0.875000
vt 0.881077 0.881077
vt 0.875000 0.883594
vt 0.868923 0.881077
vt 0.866406 0.875000
vt 0.868923 0.868923
vt 0.828125 1.000000
vt 0.828125 0.988281
vt 0.757478 1.000000
vt 0.757478 0.988281
vt 0.757478 0.921875
vt 0.750000 0.921875
vt 0.085938 1.000000
vt 0.085938 0.968750
vt 0.027344 0.968750
vt 0.027344 0.914062
vt 0.000000 0.914062
vt 0.277344 1.000000
vt 0.277344 0.914062
vt 0.250000 0.914062
vt 0.031250 0.625000
vt 0.031250 0.617637
vt 0.000000 0.617637
vt 0.062500 0.173438
vt 0.069531 0.175322
vt 0.074678 0.180469
vt 0.076563 0.187500
vt 0.074678 0.194531
vt 0.069531 0.199678
vt 0.062500 0.201562
vt 0.055469 0.199678
vt 0.050322 0.194531
vt 0.048438 0.187500
vt 0.050322 0.180469
vt 0.055469 0.175322
vt 0.026083 0.625000
vt 0.026083 0.619682
vt 0.000000 0.619682
vt 0.062500 0.177344
vt 0.067578 0.178704
vt 0.071296 0.182422
vt 0.072656 0.187500
vt 0.071296 0.192578
vt 0.067578 0.196296
vt 0.062500 0.197656
vt 0.057422 0.196296
vt 0.053704 0.192578
vt 0.052344 0.187500
vt 0.053704 0.182422
vt 0.057422 0.178704
vt 0.535156 1.000000
vt 0.535156 0.994478
vt 0.500000 0.994478
vt 0.875000 0.867969
vt 0.879972 0.870028
vt 0.882031 0.875000
vt 0.879972 0.879972
vt 0.875000 0.882031
vt 0.870028 0.879972
vt 0.867969 0.875000
vt 0.870028 0.870028
vt 0.021484 0.625000
vt 0.021484 0.621932
vt 0.000000 0.621932
vt 0.875000 0.871094
vt 0.877762 0.872238
vt 0.878906 0.875000
vt 0.877762 0.877762
vt 0.875000 0.878906
vt 0.872238 0.877762
vt 0.871094 0.875000
vt 0.872238 0.872238
vt 0.019531 0.625000
vt 0.019531 0.599609
vt 0.000000 0.599609
vt 0.004688 0.625000
vt 0.004688 0.599609
vt 0.004688 0.605469
vt 0.015625 0.601562
vt 0.000000 0.601562
vt 0.031250 0.601562
vt 0.031250 0.609375
vt 0.035156 0.625000
vt 0.035156 0.617637
vt 0.062500 0.178125
vt 0.069129 0.180871
vt 0.071875 0.187500
vt 0.069129 0.194129
vt 0.062500 0.196875
vt 0.055871 0.194129
vt 0.053125 0.187500
vt 0.055871 0.180871
vt 0.011719 0.609375
vt 0.750000 0.500000
vt 0.804688 0.500000
vt 0.804688 0.484375
vt 0.750000 0.484375
vt 0.804688 0.488281
vt 0.750000 0.488281
vt 0.867188 0.562500
vt 0.867188 0.550781
vt 0.007812 0.593750
vt 0.000000 0.593750
vt 0.804688 0.468750
vt 0.750000 0.468750
vt 0.804688 0.492188
vt 0.750000 0.492188
vt 0.867188 0.554688
vt 0.039062 0.585938
vt 0.006250 0.625000
vt 0.006250 0.585938
vt 0.250000 0.625000
vt 0.257812 0.625000
vt 0.257812 0.595703
vt 0.250000 0.595703
vt 0.304688 0.625000
vt 0.304688 0.595703
vt 0.304688 0.617188
vt 0.250000 0.617188
vt 0.259766 0.625000
vt 0.259766 0.604688
vt 0.250000 0.604688
vt 0.258594 0.625000
vt 0.258594 0.604688
vt 0.258594 0.615234
vt 0.250000 0.615234
vt 0.031250 1.000000
vt 0.031250 0.957031
vt 0.000000 0.957031
vt 0.039062 0.957031
vt 0.039062 0.968750
vt 0.289062 1.000000
vt 0.289062 0.968750
vt 0.250000 0.968750
vt 0.515625 1.000000
vt 0.515625 0.993455
vt 0.500000 0.993455
vt 0.875000 0.862500
vt 0.881250 0.864175
vt 0.885825 0.868750
vt 0.887500 0.875000
vt 0.885825 0.881250
vt 0.881250 0.885825
vt 0.875000 0.887500
vt 0.868750 0.885825
vt 0.864175 0.881250
vt 0.862500 0.875000
vt 0.864175 0.868750
vt 0.868750 0.864175
vt 0.269531 0.625000
vt 0.269531 0.607812
vt 0.250000 0.607812
vt 0.267188 0.625000
vt 0.267188 0.607812
vt 0.267188 0.605469
vt 0.250000 0.605469
vt 0.522656 1.000000
vt 0.522656 0.993864
vt 0.875000 0.863281
vt 0.880859 0.864851
vt 0.885149 0.869141
vt 0.886719 0.875000
vt 0.885149 0.880859
vt 0.880859 0.885149
vt 0.875000 0.886719
vt 0.869141 0.885149
vt 0.864851 0.880859
vt 0.863281 0.875000
vt 0.864851 0.869141
vt 0.869141 0.864851
vt 0.007812 0.609375
vt 0.039062 0.617188
vt 0.015625 0.602344
vt 0.000000 0.602344
vt 0.039062 0.602344
vt 0.263672 0.625000
vt 0.263672 0.609375
vt 0.250000 0.609375
vt 0.285156 0.625000
vt 0.285156 0.609375
vt 0.285156 0.611328
vt 0.250000 0.611328

o undercarriage
usemtl crawler
f 1/1 2/2 3/3 4/4
f 5/1 6/2 7/3 8/4
f 6/1 1/5 4/6 7/4
f 2/1 5/5 8/6 3/4
f 5/1 2/5 1/7 6/8
f 7/9 4/10 3/11 8/12
f 9/1 10/13 11/14 12/15
f 13/1 14/13 15/14 16/15
f 14/1 9/16 12/17 15/15
f 10/1 13/16 16/17 11/15
f 13/1 10/16 9/18 14/19
f 15/9 12/20 11/21 16/22
f 17/1 18/13 19/14 20/15
f 21/1 22/13 23/14 24/15
f 22/1 17/16 20/17 23/15
f 18/1 21/16 24/17 19/15
f 21/1 18/16 17/18 22/19
f 23/9 20/20 19/21 24/22
f 25/23 26/24 27/25 28/26
f 26/23 29/24 30/25 27/26
f 29/23 31/24 32/25 30/26
f 31/23 33/24 34/25 32/26
f 33/23 35/24 36/25 34/26
f 35/23 37/24 38/25 36/26
f 37/23 39/24 40/25 38/26
f 39/23 41/24 42/25 40/26
f 41/23 43/24 44/25 42/26
f 43/23 45/24 46/25 44/26
f 45/23 47/24 48/25 46/26
f 47/23 25/24 28/25 48/26
f 28/27 27/28 30/29 32/30
f 31/30 29/29 26/28 25/27
f 28/27 32/30 34/31 36/32
f 35/32 33/31 31/30 25/27
f 28/27 36/32 38/33 40/34
f 39/34 37/33 35/32 25/27
f 28/27 40/34 42/35 44/36
f 43/36 41/35 39/34 25/27
f 28/27 44/36 46/37 48/38
f 47/38 45/37 43/36 25/27
f 49/1 50/39 51/40 52/4
f 53/1 54/39 55/40 56/4
f 54/1 49/41 52/42 55/4
f 50/1 53/41 56/42 51/4
f 53/1 50/41 49/43 54/44
f 55/9 52/45 51/46 56/47
f 57/48 58/49 59/50 60/51
f 61/48 62/49 63/50 64/51
f 62/48 57/52 60/53 63/51
f 58/48 61/52 64/53 59/51
f 61/48 58/52 57/54 62/55
f 63/56 60/57 59/58 64/59
f 65/23 66/60 67/61 68/62
f 69/23 70/60 71/61 72/62
f 70/23 65/63 68/64 71/62
f 66/23 69/63 72/64 67/62
f 69/23 66/63 65/64 70/62
f 71/9 68/65 67/66 72/67
f 73/1 74/39 75/40 76/4
f 77/1 78/39 79/40 80/4
f 78/1 73/41 76/42 79/4
f 74/1 77/41 80/42 75/4
f 77/1 74/41 73/43 78/44
f 79/9 76/45 75/46 80/47
f 81/48 82/49 83/50 84/51
f 85/48 86/49 87/50 88/51
f 86/48 81/52 84/53 87/51
f 82/48 85/52 88/53 83/51
f 85/48 82/52 81/54 86/55
f 87/56 84/57 83/58 88/59
f 89/23 90/60 91/61 92/62
f 93/23 94/60 95/61 96/62
f 94/23 89/63 92/64 95/62
f 90/23 93/63 96/64 91/62
f 93/23 90/63 89/64 94/62
f 95/9 92/65 91/66 96/67

o track_left
usemtl crawler
f 97/68 98/69 99/70 100/71
f 101/72 102/73 103/70 104/71
f 100/71 99/70 102/73 101/72
f 104/72 103/73 98/70 97/71
f 98/68 105/69 106/70 99/71
f 102/72 107/73 108/70 103/71
f 99/71 106/70 107/73 102/72
f 103/72 108/73 105/70 98/71
f 105/68 109/69 110/70 106/71
f 107/72 111/73 112/70 108/71
f 106/71 110/70 111/73 107/72
f 108/72 112/73 109/70 105/71
f 109/68 113/69 114/70 110/71
f 111/72 115/73 116/70 112/71
f 110/71 114/70 115/73 111/72
f 112/72 116/73 113/70 109/71
f 113/68 117/69 118/70 114/71
f 115/72 119/73 120/70 116/71
f 114/71 118/70 119/73 115/72
f 116/72 120/73 117/70 113/71
f 117/68 121/69 122/70 118/71
f 119/72 123/73 124/70 120/71
f 118/71 122/70 123/73 119/72
f 120/72 124/73 121/70 117/71
f 121/68 125/69 126/70 122/71
f 123/72 127/73 128/70 124/71
f 122/71 126/70 127/73 123/72
f 124/72 128/73 125/70 121/71
f 125/68 129/69 130/70 126/71
f 127/72 131/73 132/70 128/71
f 126/71 130/70 131/73 127/72
f 128/72 132/73 129/70 125/71
f 129/68 133/74 134/75 130/71
f 131/72 135/76 136/75 132/71
f 130/71 134/75 135/76 131/72
f 132/72 136/76 133/75 129/71
f 133/68 137/74 138/75 134/71
f 135/72 139/76 140/75 136/71
f 134/71 138/75 139/76 135/72
f 136/72 140/76 137/75 133/71
f 137/68 141/74 142/75 138/71
f 139/72 143/76 144/75 140/71
f 138/71 142/75 143/76 139/72
f 140/72 144/76 141/75 137/71
f 141/68 145/74 146/75 142/71
f 143/72 147/76 148/75 144/71
f 142/71 146/75 147/76 143/72
f 144/72 148/76 145/75 141/71
f 145/68 149/74 150/75 146/71
f 147/72 151/76 152/75 148/71
f 146/71 150/75 151/76 147/72
f 148/72 152/76 149/75 145/71
f 149/68 153/69 154/70 150/71
f 151/72 155/73 156/70 152/71
f 150/71 154/70 155/73 151/72
f 152/72 156/73 153/70 149/71
f 153/68 157/69 158/70 154/71
f 155/72 159/73 160/70 156/71
f 154/71 158/70 159/73 155/72
f 156/72 160/73 157/70 153/71
f 157/68 161/69 162/70 158/71
f 159/72 163/73 164/70 160/71
f 158/71 162/70 163/73 159/72
f 160/72 164/73 161/70 157/71
f 161/68 165/69 166/70 162/71
f 163/72 167/73 168/70 164/71
f 162/71 166/70 167/73 163/72
f 164/72 168/73 165/70 161/71
f 165/68 169/69 170/70 166/71
f 167/72 171/73 172/70 168/71
f 166/71 170/70 171/73 167/72
f 168/72 172/73 169/70 165/71
f 169/68 173/69 174/70 170/71
f 171/72 175/73 176/70 172/71
f 170/71 174/70 175/73 171/72
f 172/72 176/73 173/70 169/71
f 173/68 177/69 178/70 174/71
f 175/72 179/73 180/70 176/71
f 174/71 178/70 179/73 175/72
f 176/72 180/73 177/70 173/71
f 177/68 181/69 182/70 178/71
f 179/72 183/73 184/70 180/71
f 178/71 182/70 183/73 179/72
f 180/72 184/73 181/70 177/71
f 181/68 185/74 186/75 182/71
f 183/72 187/76 188/75 184/71
f 182/71 186/75 187/76 183/72
f 184/72 188/76 185/75 181/71
f 185/68 189/74 190/75 186/71
f 187/72 191/76 192/75 188/71
f 186/71 190/75 191/76 187/72
f 188/72 192/76 189/75 185/71
f 189/68 193/74 194/75 190/71
f 191/72 195/76 196/75 192/71
f 190/71 194/75 195/76 191/72
f 192/72 196/76 193/75 189/71
f 193/68 197/74 198/75 194/71
f 195/72 199/76 200/75 196/71
f 194/71 198/75 199/76 195/72
f 196/72 200/76 197/75 193/71
f 197/68 97/74 100/75 198/71
f 199/72 101/76 104/75 200/71
f 198/71 100/75 101/76 199/72
f 200/72 104/76 97/75 197/71

o wheel_left_0
usemtl crawler
f 201/77 202/78 203/79 204/80
f 202/77 205/78 206/79 203/80
f 205/77 207/78 208/79 206/80
f 207/77 209/78 210/79 208/80
f 209/77 211/78 212/79 210/80
f 211/77 213/78 214/79 212/80
f 213/77 215/78 216/79 214/80
f 215/77 217/78 218/79 216/80
f 217/77 219/78 220/79 218/80
f 219/77 221/78 222/79 220/80
f 221/77 223/78 224/79 222/80
f 223/77 201/78 204/79 224/80
f 204/81 203/82 206/83 208/84
f 207/84 205/83 202/82 201/81
f 204/81 208/84 210/85 212/86
f 211/86 209/85 207/84 201/81
f 204/81 212/86 214/87 216/88
f 215/88 213/87 211/86 201/81
f 204/81 216/88 218/89 220/90
f 219/90 217/89 215/88 201/81
f 204/81 220/90 222/91 224/92
f 223/92 221/91 219/90 201/81

o wheel_left_1
usemtl crawler
f 201/77 202/78 203/79 204/80
f 202/77 205/78 206/79 203/80
f 205/77 207/78 208/79 206/80
f 207/77 209/78 210/79 208/80
f 209/77 211/78 212/79 210/80
f 211/77 213/78 214/79 212/80
f 213/77 215/78 216/79 214/80
f 215/77 217/78 218/79 216/80
f 217/77 219/78 220/79 218/80
f 219/77 221/78 222/79 220/80
f 221/77 223/78 224/79 222/80
f 223/77 201/78 204/79 224/80
f 204/81 203/82 206/83 208/84
f 207/84 205/83 202/82 201/81
f 204/81 208/84 210/85 212/86
f 211/86 209/85 207/84 201/81
f 204/81 212/86 214/87 216/88
f 215/88 213/87 211/86 201/81
f 204/81 216/88 218/89 220/90
f 219/90 217/89 215/88 201/81
f 204/81 220/90 222/91 224/92
f 223/92 221/91 219/90 201/81

o wheel_left_2
usemtl crawler
f 225/77 226/93 227/94 228/95
f 226/77 229/93 230/94 227/95
f 229/77 231/93 232/94 230/95
f 231/77 233/93 234/94 232/95
f 233/77 235/93 236/94 234/95
f 235/77 237/93 238/94 236/95
f 237/77 239/93 240/94 238/95
f 239/77 225/93 228/94 240/95
f 228/96 227/97 230/98 232/99
f 231/99 229/98 226/97 225/96
f 228/96 232/99 234/100 236/101
f 235/101 233/100 231/99 225/96
f 228/96 236/101 238/102 240/103
f 239/103 237/102 235/101 225/96

o wheel_left_3
usemtl crawler
f 225/77 226/93 227/94 228/95
f 226/77 229/93 230/94 227/95
f 229/77 231/93 232/94 230/95
f 231/77 233/93 234/94 232/95
f 233/77 235/93 236/94 234/95
f 235/77 237/93 238/94 236/95
f 237/77 239/93 240/94 238/95
f 239/77 225/93 228/94 240/95
f 228/96 227/97 230/98 232/99
f 231/99 229/98 226/97 225/96
f 228/96 232/99 234/100 236/101
f 235/101 233/100 231/99 225/96
f 228/96 236/101 238/102 240/103
f 239/103 237/102 235/101 225/96

o wheel_left_4
usemtl crawler
f 225/77 226/93 227/94 228/95
f 226/77 229/93 230/94 227/95
f 229/77 231/93 232/94 230/95
f 231/77 233/93 234/94 232/95
f 233/77 235/93 236/94 234/95
f 235/77 237/93 238/94 236/95
f 237/77 239/93 240/94 238/95
f 239/77 225/93 228/94 240/95
f 228/96 227/97 230/98 232/99
f 231/99 229/98 226/97 225/96
f 228/96 232/99 234/100 236/101
f 235/101 233/100 231/99 225/96
f 228/96 236/101 238/102 240/103
f 239/103 237/102 235/101 225/96

o wheel_left_5
usemtl crawler
f 225/77 226/93 227/94 228/95
f 226/77 229/93 230/94 227/95
f 229/77 231/93 232/94 230/95
f 231/77 233/93 234/94 232/95
f 233/77 235/93 236/94 234/95
f 235/77 237/93 238/94 236/95
f 237/77 239/93 240/94 238/95
f 239/77 225/93 228/94 240/95
f 228/96 227/97 230/98 232/99
f 231/99 229/98 226/97 225/96
f 228/96 232/99 234/100 236/101
f 235/101 233/100 231/99 225/96
f 228/96 236/101 238/102 240/103
f 239/103 237/102 235/101 225/96

o track_right
usemtl crawler
f 241/68 242/69 243/70 244/71
f 245/72 246/73 247/70 248/71
f 244/71 243/70 246/73 245/72
f 248/72 247/73 242/70 241/71
f 242/68 249/69 250/70 243/71
f 246/72 251/73 252/70 247/71
f 243/71 250/70 251/73 246/72
f 247/72 252/73 249/70 242/71
f 249/68 253/69 254/70 250/71
f 251/72 255/73 256/70 252/71
f 250/71 254/70 255/73 251/72
f 252/72 256/73 253/70 249/71
f 253/68 257/69 258/70 254/71
f 255/72 259/73 260/70 256/71
f 254/71 258/70 259/73 255/72
f 256/72 260/73 257/70 253/71
f 257/68 261/69 262/70 258/71
f 259/72 263/73 264/70 260/71
f 258/71 262/70 263/73 259/72
f 260/72 264/73 261/70 257/71
f 261/68 265/69 266/70 262/71
f 263/72 267/73 268/70 264/71
f 262/71 266/70 267/73 263/72
f 264/72 268/73 265/70 261/71
f 265/68 269/69 270/70 266/71
f 267/72 271/73 272/70 268/71
f 266/71 270/70 271/73 267/72
f 268/72 272/73 269/70 265/71
f 269/68 273/69 274/70 270/71
f 271/72 275/73 276/70 272/71
f 270/71 274/70 275/73 271/72
f 272/72 276/73 273/70 269/71
f 273/68 277/74 278/75 274/71
f 275/72 279/76 280/75 276/71
f 274/71 278/75 279/76 275/72
f 276/72 280/76 277/75 273/71
f 277/68 281/74 282/75 278/71
f 279/72 283/76 284/75 280/71
f 278/71 282/75 283/76 279/72
f 280/72 284/76 281/75 277/71
f 281/68 285/74 286/75 282/71
f 283/72 287/76 288/75 284/71
f 282/71 286/75 287/76 283/72
f 284/72 288/76 285/75 281/71
f 285/68 289/74 290/75 286/71
f 287/72 291/76 292/75 288/71
f 286/71 290/75 291/76 287/72
f 288/72 292/76 289/75 285/71
f 289/68 293/74 294/75 290/71
f 291/72 295/76 296/75 292/71
f 290/71 294/75 295/76 291/72
f 292/72 296/76 293/75 289/71
f 293/68 297/69 298/70 294/71
f 295/72 299/73 300/70 296/71
f 294/71 298/70 299/73 295/72
f 296/72 300/73 297/70 293/71
f 297/68 301/69 302/70 298/71
f 299/72 303/73 304/70 300/71
f 298/71 302/70 303/73 299/72
f 300/72 304/73 301/70 297/71
f 301/68 305/69 306/70 302/71
f 303/72 307/73 308/70 304/71
f 302/71 306/70 307/73 303/72
f 304/72 308/73 305/70 301/71
f 305/68 309/69 310/70 306/71
f 307/72 311/73 312/70 308/71
f 306/71 310/70 311/73 307/72
f 308/72 312/73 309/70 305/71
f 309/68 313/69 314/70 310/71
f 311/72 315/73 316/70 312/71
f 310/71 314/70 315/73 311/72
f 312/72 316/73 313/70 309/71
f 313/68 317/69 318/70 314/71
f 315/72 319/73 320/70 316/71
f 314/71 318/70 319/73 315/72
f 316/72 320/73 317/70 313/71
f 317/68 321/69 322/70 318/71
f 319/72 323/73 324/70 320/71
f 318/71 322/70 323/73 319/72
f 320/72 324/73 321/70 317/71
f 321/68 325/69 326/70 322/71
f 323/72 327/73 328/70 324/71
f 322/71 326/70 327/73 323/72
f 324/72 328/73 325/70 321/71
f 325/68 329/74 330/75 326/71
f 327/72 331/76 332/75 328/71
f 326/71 330/75 331/76 327/72
f 328/72 332/76 329/75 325/71
f 329/68 333/74 334/75 330/71
f 331/72 335/76 336/75 332/71
f 330/71 334/75 335/76 331/72
f 332/72 336/76 333/75 329/71
f 333/68 337/74 338/75 334/71
f 335/72 339/76 340/75 336/71
f 334/71 338/75 339/76 335/72
f 336/72 340/76 337/75 333/71
f 337/68 341/74 342/75 338/71
f 339/72 343/76 344/75 340/71
f 338/71 342/75 343/76 339/72
f 340/72 344/76 341/75 337/71
f 341/68 241/74 244/75 342/71
f 343/72 245/76 248/75 344/71
f 342/71 244/75 245/76 343/72
f 344/72 248/76 241/75 341/71

o wheel_right_0
usemtl crawler
f 345/77 346/78 347/79 348/80
f 346/77 349/78 350/79 347/80
f 349/77 351/78 352/79 350/80
f 351/77 353/78 354/79 352/80
f 353/77 355/78 356/79 354/80
f 355/77 357/78 358/79 356/80
f 357/77 359/78 360/79 358/80
f 359/77 361/78 362/79 360/80
f 361/77 363/78 364/79 362/80
f 363/77 365/78 366/79 364/80
f 365/77 367/78 368/79 366/80
f 367/77 345/78 348/79 368/80
f 348/81 347/82 350/83 352/84
f 351/84 349/83 346/82 345/81
f 348/81 352/84 354/85 356/86
f 355/86 353/85 351/84 345/81
f 348/81 356/86 358/87 360/88
f 359/88 357/87 355/86 345/81
f 348/81 360/88 362/89 364/90
f 363/90 361/89 359/88 345/81
f 348/81 364/90 366/91 368/92
f 367/92 365/91 363/90 345/81

o wheel_right_1
usemtl crawler
f 345/77 346/78 347/79 348/80
f 346/77 349/78 350/79 347/80
f 349/77 351/78 352/79 350/80
f 351/77 353/78 354/79 352/80
f 353/77 355/78 356/79 354/80
f 355/77 357/78 358/79 356/80
f 357/77 359/78 360/79 358/80
f 359/77 361/78 362/79 360/80
f 361/77 363/78 364/79 362/80
f 363/77 365/78 366/79 364/80
f 365/77 367/78 368/79 366/80
f 367/77 345/78 348/79 368/80
f 348/81 347/82 350/83 352/84
f 351/84 349/83 346/82 345/81
f 348/81 352/84 354/85 356/86
f 355/86 353/85 351/84 345/81
f 348/81 356/86 358/87 360/88
f 359/88 357/87 355/86 345/81
f 348/81 360/88 362/89 364/90
f 363/90 361/89 359/88 345/81
f 348/81 364/90 366/91 368/92
f 367/92 365/91 363/90 345/81

o wheel_right_2
usemtl crawler
f 369/77 370/93 371/94 372/95
f 370/77 373/93 374/94 371/95
f 373/77 375/93 376/94 374/95
f 375/77 377/93 378/94 376/95
f 377/77 379/93 380/94 378/95
f 379/77 381/93 382/94 380/95
f 381/77 383/93 384/94 382/95
f 383/77 369/93 372/94 384/95
f 372/96 371/97 374/98 376/99
f 375/99 373/98 370/97 369/96
f 372/96 376/99 378/100 380/101
f 379/101 377/100 375/99 369/96
f 372/96 380/101 382/102 384/103
f 383/103 381/102 379/101 369/96

o wheel_right_3
usemtl crawler
f 369/77 370/93 371/94 372/95
f 370/77 373/93 374/94 371/95
f 373/77 375/93 376/94 374/95
f 375/77 377/93 378/94 376/95
f 377/77 379/93 380/94 378/95
f 379/77 381/93 382/94 380/95
f 381/77 383/93 384/94 382/95
f 383/77 369/93 372/94 384/95
f 372/96 371/97 374/98 376/99
f 375/99 373/98 370/97 369/96
f 372/96 376/99 378/100 380/101
f 379/101 377/100 375/99 369/96
f 372/96 380/101 382/102 384/103
f 383/103 381/102 379/101 369/96

o wheel_right_4
usemtl crawler
f 369/77 370/93 371/94 372/95
f 370/77 373/93 374/94 371/95
f 373/77 375/93 376/94 374/95
f 375/77 377/93 378/94 376/95
f 377/77 379/93 380/94 378/95
f 379/77 381/93 382/94 380/95
f 381/77 383/93 384/94 382/95
f 383/77 369/93 372/94 384/95
f 372/96 371/97 374/98 376/99
f 375/99 373/98 370/97 369/96
f 372/96 376/99 378/100 380/101
f 379/101 377/100 375/99 369/96
f 372/96 380/101 382/102 384/103
f 383/103 381/102 379/101 369/96

o wheel_right_5
usemtl crawler
f 369/77 370/93 371/94 372/95
f 370/77 373/93 374/94 371/95
f 373/77 375/93 376/94 374/95
f 375/77 377/93 378/94 376/95
f 377/77 379/93 380/94 378/95
f 379/77 381/93 382/94 380/95
f 381/77 383/93 384/94 382/95
f 383/77 369/93 372/94 384/95
f 372/96 371/97 374/98 376/99
f 375/99 373/98 370/97 369/96
f 372/96 376/99 378/100 380/101
f 379/101 377/100 375/99 369/96
f 372/96 380/101 382/102 384/103
f 383/103 381/102 379/101 369/96

o house
usemtl crawler
f 385/48 386/104 387/105 388/106
f 389/48 390/104 391/105 392/106
f 390/48 385/107 388/108 391/106
f 386/48 389/107 392/108 387/106
f 389/109 386/110 385/111 390/112
f 391/9 388/113 387/114 392/12
f 393/115 394/116 395/117 396/118
f 397/115 398/116 399/117 400/118
f 398/119 393/120 396/121 399/122
f 394/9 397/123 400/124 395/125
f 397/9 394/123 393/126 398/127
f 399/9 396/123 395/126 400/127
f 401/115 402/116 394/128 403/129
f 404/115 405/116 406/128 397/129
f 405/119 401/120 403/130 406/131
f 402/9 404/123 397/132 394/133
f 404/9 402/123 401/126 405/127
f 406/9 403/123 394/126 397/127
f 407/134 408/135 409/136 410/137
f 411/134 412/135 390/136 413/137
f 412/138 407/139 410/140 390/141
f 408/134 411/135 413/136 409/137
f 411/48 408/142 407/143 412/144
f 390/9 410/145 409/146 413/147
f 414/138 415/148 416/149 417/150
f 418/138 419/148 420/149 421/150
f 419/138 414/151 417/152 420/150
f 415/138 418/151 421/152 416/150
f 418/153 415/154 414/155 419/156
f 420/9 417/157 416/158 421/159
f 422/48 423/160 424/161 425/162
f 426/48 427/160 413/161 389/162
f 427/48 422/163 425/164 413/162
f 423/48 426/163 389/164 424/162
f 426/109 423/165 422/166 427/167
f 413/56 425/168 424/169 389/170
f 428/48 429/171 430/172 385/162
f 431/48 432/171 433/172 434/162
f 432/48 428/173 385/174 433/162
f 429/48 431/173 434/174 430/162
f 431/109 429/175 428/176 432/177
f 433/56 385/178 430/179 434/180
f 435/48 436/181 437/182 438/183
f 439/48 440/181 441/182 442/183
f 440/48 435/184 438/185 441/183
f 436/48 439/184 442/185 437/183
f 439/109 436/186 435/187 440/188
f 441/56 438/189 437/190 442/191
f 443/23 444/192 445/193 446/194
f 447/23 448/192 449/193 450/194
f 448/23 443/195 446/196 449/194
f 444/23 447/195 450/196 445/194
f 447/23 444/195 443/197 448/198
f 449/9 446/199 445/200 450/201
f 451/23 452/192 453/193 454/194
f 455/23 456/192 457/193 458/194
f 456/23 451/195 454/196 457/194
f 452/23 455/195 458/196 453/194
f 455/23 452/195 451/197 456/198
f 457/9 454/199 453/200 458/201
f 459/1 460/202 461/203 462/204
f 460/1 463/202 464/203 461/204
f 463/1 465/202 466/203 464/204
f 465/1 467/202 468/203 466/204
f 467/1 469/202 470/203 468/204
f 469/1 471/202 472/203 470/204
f 471/1 473/202 474/203 472/204
f 473/1 459/202 462/203 474/204
f 462/205 461/206 464/207 466/208
f 465/208 463/207 460/206 459/205
f 462/205 466/208 468/209 470/210
f 469/210 467/209 465/208 459/205
f 462/205 470/210 472/211 474/212
f 473/212 471/211 469/210 459/205
f 475/9 476/213 477/214 478/215
f 476/9 479/213 480/214 477/215
f 479/9 481/213 482/214 480/215
f 481/9 483/213 484/214 482/215
f 483/9 485/213 486/214 484/215
f 485/9 487/213 488/214 486/215
f 487/9 489/213 490/214 488/215
f 489/9 475/213 478/214 490/215
f 478/216 477/217 480/218 482/219
f 481/219 479/218 476/217 475/216
f 478/216 482/219 484/220 486/221
f 485/221 483/220 481/219 475/216
f 478/216 486/221 488/222 490/223
f 489/223 487/222 485/221 475/216
f 491/1 492/224 436/225 493/226
f 494/1 495/224 496/225 497/226
f 495/1 491/227 493/228 496/226
f 492/1 494/227 497/228 436/226
f 494/109 492/229 491/230 495/231
f 496/9 493/145 436/232 497/233
f 498/48 499/181 500/234 501/51
f 502/48 503/181 504/234 505/51
f 503/48 498/184 501/235 504/51
f 499/48 502/184 505/235 500/51
f 502/48 499/184 498/236 503/237
f 504/9 501/238 500/239 505/240
f 506/48 507/241 508/242 509/144
f 510/48 511/241 512/242 494/144
f 511/48 506/241 509/242 512/144
f 507/48 510/241 494/242 508/144
f 510/48 507/241 506/243 511/51
f 512/48 509/241 508/243 494/51
f 513/48 514/241 515/242 516/144
f 517/48 518/241 495/242 519/144
f 518/48 513/241 516/242 495/144
f 514/48 517/241 519/242 515/144
f 517/48 514/241 513/243 518/51
f 495/48 516/241 515/243 519/51
f 520/48 521/241 492/242 522/144
f 523/48 524/241 525/242 526/144
f 524/48 520/241 522/242 525/144
f 521/48 523/241 526/242 492/144
f 523/48 521/241 520/243 524/51
f 525/48 522/241 492/243 526/51
f 527/48 528/241 529/242 491/144
f 530/48 531/241 532/242 533/144
f 531/48 527/241 491/242 532/144
f 528/48 530/241 533/242 529/144
f 530/48 528/241 527/243 531/51
f 532/48 491/241 529/243 533/51
f 534/48 535/241 533/244 532/162
f 536/48 537/241 516/244 515/162
f 537/245 534/246 532/247 516/248
f 535/245 536/246 515/247 533/248
f 536/48 535/249 534/250 537/51
f 516/48 532/249 533/250 515/51
f 546/48 547/142 548/259 549/260
f 550/48 551/142 519/259 512/260
f 551/48 546/261 549/262 519/260
f 547/48 550/261 512/262 548/260
f 550/48 547/261 546/263 551/144
f 519/48 549/261 548/263 512/144
f 576/245 577/272 522/273 529/248
f 578/245 579/272 580/273 581/248
f 579/48 576/261 529/274 580/162
f 577/48 578/261 581/274 522/162
f 578/245 577/275 576/276 579/277
f 580/245 529/275 522/276 581/277
f 582/23 583/278 584/279 585/280
f 586/23 587/278 588/279 589/280
f 587/23 582/281 585/282 588/280
f 583/23 586/281 589/282 584/280
f 586/23 583/281 582/283 587/284
f 588/23 585/281 584/283 589/284
f 590/285 591/286 592/287 593/288
f 594/285 595/286 596/287 597/288
f 595/285 590/289 593/290 596/288
f 591/285 594/289 597/290 592/288
f 594/285 591/289 590/291 595/292
f 596/285 593/289 592/291 597/292
f 598/285 599/293 590/294 600/295
f 601/285 602/293 603/294 595/295
f 602/285 598/289 600/296 603/295
f 599/285 601/289 595/296 590/295
f 601/285 599/289 598/297 602/298
f 603/285 600/289 590/297 595/298
f 604/299 605/300 606/301 607/302
f 608/299 609/300 610/301 611/302
f 609/9 604/199 607/303 610/304
f 605/9 608/199 611/303 606/304
f 608/299 605/305 604/306 609/307
f 610/299 607/305 606/306 611/307
f 612/299 613/300 614/301 615/302
f 616/299 617/300 618/301 619/302
f 617/9 612/199 615/303 618/304
f 613/9 616/199 619/303 614/304
f 616/299 613/305 612/306 617/307
f 618/299 615/305 614/306 619/307
f 620/299 621/305 622/308 623/309
f 621/299 624/305 625/308 622/309
f 624/299 626/305 627/308 625/309
f 626/299 628/305 629/308 627/309
f 628/299 630/305 631/308 629/309
f 630/299 632/305 633/308 631/309
f 632/299 634/305 635/308 633/309
f 634/299 620/305 623/308 635/309
f 623/310 622/311 625/312 627/313
f 626/313 624/312 621/311 620/310
f 623/310 627/313 629/314 631/315
f 630/315 628/314 626/313 620/310
f 623/310 631/315 633/316 635/317
f 634/317 632/316 630/315 620/310
f 636/23 637/318 638/319 639/320
f 640/23 641/318 642/319 643/320
f 641/23 636/318 639/319 642/320
f 637/23 640/318 643/319 638/320
f 640/23 637/318 636/321 641/322
f 642/23 639/318 638/321 643/322
f 644/23 645/318 646/319 647/320
f 648/23 649/318 650/319 651/320
f 649/23 644/318 647/319 650/320
f 645/23 648/318 651/319 646/320
f 648/23 645/318 644/321 649/322
f 650/23 647/318 646/321 651/322
f 652/23 653/323 654/324 655/325
f 656/23 657/323 658/324 659/325
f 657/23 652/326 655/327 658/325
f 653/23 656/326 659/327 654/325
f 656/23 653/326 652/328 657/329
f 658/23 655/326 654/328 659/329
f 660/23 661/318 662/319 663/320
f 664/23 665/318 666/319 667/320
f 665/23 660/318 663/319 666/320
f 661/23 664/318 667/319 662/320
f 664/23 661/318 660/321 665/322
f 666/23 663/318 662/321 667/322
f 668/23 669/318 670/319 671/320
f 672/23 673/318 674/319 675/320
f 673/23 668/318 671/319 674/320
f 669/23 672/318 675/319 670/320
f 672/23 669/318 668/321 673/322
f 674/23 671/318 670/321 675/322
f 676/23 677/330 678/331 679/325
f 680/23 681/330 682/331 683/325
f 681/23 676/326 679/327 682/325
f 677/23 680/326 683/327 678/325
f 680/23 677/326 676/332 681/333
f 682/23 679/326 678/332 683/333
f 684/109 685/334 686/335 687/336
f 688/109 689/334 690/335 691/336
f 689/109 684/337 687/338 690/336
f 685/109 688/337 691/338 686/336
f 688/109 685/337 684/339 689/340
f 690/9 687/213 686/341 691/22
f 692/342 693/343 694/344 695/345
f 696/23 697/346 698/347 699/62
f 693/23 696/348 699/349 694/62
f 697/23 692/348 695/349 698/62
f 692/23 697/348 696/350 693/351
f 694/23 699/348 698/350 695/351

o house_glass
usemtl crawler
f 538/251 539/252 540/253 541/254
f 542/251 543/252 544/253 545/254
f 543/251 538/255 541/256 544/254
f 539/251 542/255 545/256 540/254
f 542/251 539/255 538/257 543/258
f 544/251 541/255 540/257 545/258
f 552/251 553/264 554/265 555/266
f 556/251 557/264 558/265 559/266
f 557/251 552/252 555/267 558/266
f 553/251 556/252 559/267 554/266
f 556/251 553/252 552/268 557/269
f 558/251 555/252 554/268 559/269
f 560/251 561/252 562/268 563/269
f 564/251 565/252 566/268 567/269
f 565/251 560/255 563/270 566/269
f 561/251 564/255 567/270 562/269
f 564/251 561/255 560/257 565/258
f 566/251 563/255 562/257 567/258
f 568/251 569/264 570/271 571/254
f 572/251 573/264 574/271 575/254
f 573/251 568/252 571/253 574/254
f 569/251 572/252 575/253 570/254
f 572/251 569/252 568/268 573/269
f 574/251 571/252 570/268 575/269

o boom
usemtl crawler
f 700/48 701/107 702/352 703/353
f 704/48 705/107 706/352 707/353
f 705/48 700/354 703/355 706/353
f 701/48 704/354 707/355 702/353
f 704/48 701/354 700/356 705/357
f 706/56 703/358 702/359 707/360
f 708/23 709/346 710/361 711/362
f 709/23 712/346 713/361 710/362
f 712/23 714/346 715/361 713/362
f 714/23 716/346 717/361 715/362
f 716/23 718/346 719/361 717/362
f 718/23 720/346 721/361 719/362
f 720/23 722/346 723/361 721/362
f 722/23 724/346 725/361 723/362
f 724/23 726/346 727/361 725/362
f 726/23 728/346 729/361 727/362
f 728/23 730/346 731/361 729/362
f 730/23 708/346 711/361 731/362
f 711/363 710/364 713/365 715/366
f 714/366 712/365 709/364 708/363
f 711/363 715/366 717/367 719/368
f 718/368 716/367 714/366 708/363
f 711/363 719/368 721/369 723/370
f 722/370 720/369 718/368 708/363
f 711/363 723/370 725/371 727/372
f 726/372 724/371 722/370 708/363
f 711/363 727/372 729/373 731/374
f 730/374 728/373 726/372 708/363
f 732/23 733/375 734/376 735/377
f 733/23 736/375 737/376 734/377
f 736/23 738/375 739/376 737/377
f 738/23 740/375 741/376 739/377
f 740/23 742/375 743/376 741/377
f 742/23 744/375 745/376 743/377
f 744/23 746/375 747/376 745/377
f 746/23 748/375 749/376 747/377
f 748/23 750/375 751/376 749/377
f 750/23 752/375 753/376 751/377
f 752/23 754/375 755/376 753/377
f 754/23 732/375 735/376 755/377
f 735/378 734/379 737/380 739/381
f 738/381 736/380 733/379 732/378
f 735/378 739/381 741/382 743/383
f 742/383 740/382 738/381 732/378
f 735/378 743/383 745/384 747/385
f 746/385 744/384 742/383 732/378
f 735/378 747/385 749/386 751/387
f 750/387 748/386 746/385 732/378
f 735/378 751/387 753/388 755/389
f 754/389 752/388 750/387 732/378
f 756/23 757/60 758/390 759/391
f 760/23 761/60 762/390 763/391
f 761/23 756/392 759/393 762/391
f 757/23 760/392 763/393 758/391
f 760/23 757/392 756/394 761/62
f 762/23 759/392 758/394 763/62
f 764/1 765/41 766/395 767/396
f 765/1 768/41 769/395 766/396
f 768/1 770/41 771/395 769/396
f 770/1 772/41 773/395 771/396
f 772/1 774/41 775/395 773/396
f 774/1 776/41 777/395 775/396
f 776/1 778/41 779/395 777/396
f 778/1 764/41 767/395 779/396
f 767/216 766/217 769/218 771/219
f 770/219 768/218 765/217 764/216
f 767/216 771/219 773/220 775/221
f 774/221 772/220 770/219 764/216
f 767/216 775/221 777/222 779/223
f 778/223 776/222 774/221 764/216
f 780/23 781/397 782/398 783/399
f 781/23 784/397 785/398 782/399
f 784/23 786/397 787/398 785/399
f 786/23 788/397 789/398 787/399
f 788/23 790/397 791/398 789/399
f 790/23 792/397 793/398 791/399
f 792/23 794/397 795/398 793/399
f 794/23 780/397 783/398 795/399
f 783/310 782/311 785/312 787/313
f 786/313 784/312 781/311 780/310
f 783/310 787/313 789/314 791/315
f 790/315 788/314 786/313 780/310
f 783/310 791/315 793/316 795/317
f 794/317 792/316 790/315 780/310
f 796/1 797/202 798/400 799/401
f 797/1 800/202 801/400 798/401
f 800/1 802/202 803/400 801/401
f 802/1 804/202 805/400 803/401
f 804/1 806/202 807/400 805/401
f 806/1 808/202 809/400 807/401
f 808/1 810/202 811/400 809/401
f 810/1 796/202 799/400 811/401
f 799/402 798/403 801/404 803/405
f 802/405 800/404 797/403 796/402
f 799/402 803/405 805/406 807/407
f 806/407 804/406 802/405 796/402
f 799/402 807/407 809/408 811/409
f 810/409 808/408 806/407 796/402
f 812/9 813/410 814/411 815/133
f 816/9 817/410 818/411 819/133
f 817/9 812/412 815/413 818/133
f 813/9 816/412 819/413 814/133
f 816/9 813/412 812/414 817/415
f 818/9 815/412 814/414 819/415

o stick
usemtl crawler
f 820/48 821/416 822/417 823/260
f 824/48 825/416 826/417 827/260
f 825/48 820/171 823/418 826/260
f 821/48 824/171 827/418 822/260
f 824/48 821/171 820/419 825/420
f 826/56 823/421 822/422 827/423
f 828/23 829/424 830/425 831/426
f 829/23 832/424 833/425 830/426
f 832/23 834/424 835/425 833/426
f 834/23 836/424 837/425 835/426
f 836/23 838/424 839/425 837/426
f 838/23 840/424 841/425 839/426
f 840/23 842/424 843/425 841/426
f 842/23 844/424 845/425 843/426
f 844/23 846/424 847/425 845/426
f 846/23 848/424 849/425 847/426
f 848/23 850/424 851/425 849/426
f 850/23 828/424 831/425 851/426
f 831/427 830/428 833/429 835/430
f 834/430 832/429 829/428 828/427
f 831/427 835/430 837/431 839/432
f 838/432 836/431 834/430 828/427
f 831/427 839/432 841/433 843/434
f 842/434 840/433 838/432 828/427
f 831/427 843/434 845/435 847/436
f 846/436 844/435 842/434 828/427
f 831/427 847/436 849/437 851/438
f 850/438 848/437 846/436 828/427
f 852/23 853/439 854/440 855/441
f 853/23 856/439 857/440 854/441
f 856/23 858/439 859/440 857/441
f 858/23 860/439 861/440 859/441
f 860/23 862/439 863/440 861/441
f 862/23 864/439 865/440 863/441
f 864/23 866/439 867/440 865/441
f 866/23 868/439 869/440 867/441
f 868/23 870/439 871/440 869/441
f 870/23 872/439 873/440 871/441
f 872/23 874/439 875/440 873/441
f 874/23 852/439 855/440 875/441
f 855/442 854/443 857/444 859/445
f 858/445 856/444 853/443 852/442
f 855/442 859/445 861/446 863/447
f 862/447 860/446 858/445 852/442
f 855/442 863/447 865/448 867/449
f 866/449 864/448 862/447 852/442
f 855/442 867/449 869/450 871/451
f 870/451 868/450 866/449 852/442
f 855/442 871/451 873/452 875/453
f 874/453 872/452 870/451 852/442
f 876/1 877/454 878/455 879/456
f 877/1 880/454 881/455 878/456
f 880/1 882/454 883/455 881/456
f 882/1 884/454 885/455 883/456
f 884/1 886/454 887/455 885/456
f 886/1 888/454 889/455 887/456
f 888/1 890/454 891/455 889/456
f 890/1 876/454 879/455 891/456
f 879/457 878/458 881/459 883/460
f 882/460 880/459 877/458 876/457
f 879/457 883/460 885/461 887/462
f 886/462 884/461 882/460 876/457
f 879/457 887/462 889/463 891/464
f 890/464 888/463 886/462 876/457
f 892/23 893/465 894/466 895/467
f 893/23 896/465 897/466 894/467
f 896/23 898/465 899/466 897/467
f 898/23 900/465 901/466 899/467
f 900/23 902/465 903/466 901/467
f 902/23 904/465 905/466 903/467
f 904/23 906/465 907/466 905/467
f 906/23 892/465 895/466 907/467
f 895/468 894/469 897/470 899/471
f 898/471 896/470 893/469 892/468
f 895/468 899/471 901/472 903/473
f 902/473 900/472 898/471 892/468
f 895/468 903/473 905/474 907/475
f 906/475 904/474 902/473 892/468
f 908/23 909/476 910/477 911/478
f 912/23 913/476 914/477 915/478
f 913/23 908/479 911/480 914/478
f 909/23 912/479 915/480 910/478
f 912/23 909/479 908/481 913/391
f 914/23 911/479 910/481 915/391
f 916/23 917/476 918/477 919/478
f 920/23 921/476 922/477 923/478
f 921/23 916/479 919/480 922/478
f 917/23 920/479 923/480 918/478
f 920/23 917/479 916/481 921/391
f 922/23 919/479 918/481 923/391

o tool_bucket
usemtl crawler
f 924/23 925/60 926/482 927/483
f 928/23 929/60 930/482 931/483
f 929/23 924/424 927/484 930/483
f 925/23 928/424 931/484 926/483
f 928/23 925/424 924/485 929/62
f 930/23 927/424 926/485 931/62
f 932/23 933/486 934/487 935/426
f 933/23 936/486 937/487 934/426
f 936/23 938/486 939/487 937/426
f 938/23 940/486 941/487 939/426
f 940/23 942/486 943/487 941/426
f 942/23 944/486 945/487 943/426
f 944/23 946/486 947/487 945/426
f 946/23 932/486 935/487 947/426
f 935/488 934/489 937/490 939/491
f 938/491 936/490 933/489 932/488
f 935/488 939/491 941/492 943/493
f 942/493 940/492 938/491 932/488
f 935/488 943/493 945/494 947/495
f 946/495 944/494 942/493 932/488
f 948/23 949/195 950/496 951/62
f 952/23 953/195 954/496 955/62
f 953/497 948/498 951/499 954/500
f 949/497 952/498 955/499 950/500
f 952/497 949/498 948/501 953/502
f 954/285 951/503 950/504 955/288
f 949/23 956/195 957/496 950/62
f 958/23 952/195 955/496 959/62
f 952/497 949/498 950/499 955/500
f 956/497 958/498 959/499 957/500
f 958/497 956/498 949/501 952/502
f 955/285 950/503 957/504 959/288
f 956/23 960/278 961/505 957/506
f 962/23 958/278 959/505 963/506
f 958/497 956/498 957/507 959/508
f 960/497 962/498 963/507 961/508
f 962/497 960/498 956/509 958/510
f 959/285 957/503 961/511 963/298
f 964/23 965/346 966/512 967/351
f 968/23 969/346 970/512 971/351
f 969/23 964/513 967/514 970/351
f 965/23 968/513 971/514 966/351
f 968/23 965/513 964/514 969/351
f 970/23 967/513 966/514 971/351
f 972/23 973/346 974/512 975/351
f 976/23 977/346 978/512 979/351
f 977/23 972/513 975/514 978/351
f 973/23 976/513 979/514 974/351
f 976/23 973/513 972/514 977/351
f 978/23 975/513 974/514 979/351
f 980/515 981/516 982/517 983/518
f 984/515 985/516 986/517 987/518
f 985/515 980/519 983/520 986/518
f 981/515 984/519 987/520 982/518
f 984/515 981/519 980/521 985/522
f 986/515 983/519 982/521 987/522
f 988/515 989/523 990/524 991/525
f 992/515 993/523 994/524 995/525
f 993/515 988/526 991/527 994/525
f 989/515 992/526 995/527 990/525
f 992/515 989/526 988/528 993/529
f 994/515 991/526 990/528 995/529
f 996/515 997/523 998/524 999/525
f 1000/515 1001/523 1002/524 1003/525
f 1001/515 996/526 999/527 1002/525
f 997/515 1000/526 1003/527 998/525
f 1000/515 997/526 996/528 1001/529
f 1002/515 999/526 998/528 1003/529
f 1004/515 1005/523 1006/524 1007/525
f 1008/515 1009/523 1010/524 1011/525
f 1009/515 1004/526 1007/527 1010/525
f 1005/515 1008/526 1011/527 1006/525
f 1008/515 1005/526 1004/528 1009/529
f 1010/515 1007/526 1006/528 1011/529
f 1012/515 1013/523 1014/524 1015/525
f 1016/515 1017/523 1018/524 1019/525
f 1017/515 1012/526 1015/527 1018/525
f 1013/515 1016/526 1019/527 1014/525
f 1016/515 1013/526 1012/528 1017/529
f 1018/515 1015/526 1014/528 1019/529
f 1020/515 1021/523 1022/524 1023/525
f 1024/515 1025/523 1026/524 1027/525
f 1025/515 1020/526 1023/527 1026/525
f 1021/515 1024/526 1027/527 1022/525
f 1024/515 1021/526 1020/528 1025/529
f 1026/515 1023/526 1022/528 1027/529

o tool_breaker
usemtl crawler
f 924/23 925/60 926/482 927/483
f 928/23 929/60 930/482 931/483
f 929/23 924/424 927/484 930/483
f 925/23 928/424 931/484 926/483
f 928/23 925/424 924/485 929/62
f 930/23 927/424 926/485 931/62
f 932/23 933/486 934/487 935/426
f 933/23 936/486 937/487 934/426
f 936/23 938/486 939/487 937/426
f 938/23 940/486 941/487 939/426
f 940/23 942/486 943/487 941/426
f 942/23 944/486 945/487 943/426
f 944/23 946/486 947/487 945/426
f 946/23 932/486 935/487 947/426
f 935/488 934/489 937/490 939/491
f 938/491 936/490 933/489 932/488
f 935/488 939/491 941/492 943/493
f 942/493 940/492 938/491 932/488
f 935/488 943/493 945/494 947/495
f 946/495 944/494 942/493 932/488
f 1028/48 1029/530 1030/531 1031/532
f 1032/48 1033/530 1034/531 1035/532
f 1033/48 1028/249 1031/533 1034/532
f 1029/48 1032/249 1035/533 1030/532
f 1032/48 1029/249 1028/534 1033/260
f 1034/56 1031/535 1030/536 1035/537
f 1036/1 1037/538 1038/539 1039/540
f 1037/1 1040/538 1041/539 1038/540
f 1040/1 1042/538 1043/539 1041/540
f 1042/1 1044/538 1045/539 1043/540
f 1044/1 1046/538 1047/539 1045/540
f 1046/1 1048/538 1049/539 1047/540
f 1048/1 1050/538 1051/539 1049/540
f 1050/1 1052/538 1053/539 1051/540
f 1052/1 1054/538 1055/539 1053/540
f 1054/1 1056/538 1057/539 1055/540
f 1056/1 1058/538 1059/539 1057/540
f 1058/1 1036/538 1039/539 1059/540
f 1039/541 1038/542 1041/543 1043/544
f 1042/544 1040/543 1037/542 1036/541
f 1039/541 1043/544 1045/545 1047/546
f 1046/546 1044/545 1042/544 1036/541
f 1039/541 1047/546 1049/547 1051/548
f 1050/548 1048/547 1046/546 1036/541
f 1039/541 1051/548 1053/549 1055/550
f 1054/550 1052/549 1050/548 1036/541
f 1039/541 1055/550 1057/551 1059/552
f 1058/552 1056/551 1054/550 1036/541
f 1060/515 1061/553 1062/554 1063/555
f 1064/515 1065/553 1066/554 1067/555
f 1065/515 1060/556 1063/557 1066/555
f 1061/515 1064/556 1067/557 1062/555
f 1064/515 1061/556 1060/558 1065/559
f 1066/515 1063/556 1062/558 1067/559

o tool_grapple
usemtl crawler
f 924/23 925/60 926/482 927/483
f 928/23 929/60 930/482 931/483
f 929/23 924/424 927/484 930/483
f 925/23 928/424 931/484 926/483
f 928/23 925/424 924/485 929/62
f 930/23 927/424 926/485 931/62
f 932/23 933/486 934/487 935/426
f 933/23 936/486 937/487 934/426
f 936/23 938/486 939/487 937/426
f 938/23 940/486 941/487 939/426
f 940/23 942/486 943/487 941/426
f 942/23 944/486 945/487 943/426
f 944/23 946/486 947/487 945/426
f 946/23 932/486 935/487 947/426
f 935/488 934/489 937/490 939/491
f 938/491 936/490 933/489 932/488
f 935/488 939/491 941/492 943/493
f 942/493 940/492 938/491 932/488
f 935/488 943/493 945/494 947/495
f 946/495 944/494 942/493 932/488
f 1068/1 1069/560 1070/561 1071/396
f 1069/1 1072/560 1073/561 1070/396
f 1072/1 1074/560 1075/561 1073/396
f 1074/1 1076/560 1077/561 1075/396
f 1076/1 1078/560 1079/561 1077/396
f 1078/1 1080/560 1081/561 1079/396
f 1080/1 1082/560 1083/561 1081/396
f 1082/1 1084/560 1085/561 1083/396
f 1084/1 1086/560 1087/561 1085/396
f 1086/1 1088/560 1089/561 1087/396
f 1088/1 1090/560 1091/561 1089/396
f 1090/1 1068/560 1071/561 1091/396
f 1071/562 1070/563 1073/564 1075/565
f 1074/565 1072/564 1069/563 1068/562
f 1071/562 1075/565 1077/566 1079/567
f 1078/567 1076/566 1074/565 1068/562
f 1071/562 1079/567 1081/568 1083/569
f 1082/569 1080/568 1078/567 1068/562
f 1071/562 1083/569 1085/570 1087/571
f 1086/571 1084/570 1082/569 1068/562
f 1071/562 1087/571 1089/572 1091/573
f 1090/573 1088/572 1086/571 1068/562
f 1092/23 1093/278 1094/574 1095/62
f 1096/23 1097/278 1098/574 1099/62
f 1097/23 1092/346 1095/347 1098/62
f 1093/23 1096/346 1099/347 1094/62
f 1096/23 1093/346 1092/575 1097/284
f 1098/23 1095/346 1094/575 1099/284
f 1100/23 1101/60 1102/576 1103/577
f 1104/23 1105/60 1106/576 1107/577
f 1105/23 1100/346 1103/578 1106/577
f 1101/23 1104/346 1107/578 1102/577
f 1104/23 1101/346 1100/347 1105/62
f 1106/23 1103/346 1102/347 1107/62
f 1101/515 1108/579 1109/580 1102/581
f 1110/515 1104/579 1107/580 1111/581
f 1104/515 1101/582 1102/583 1107/581
f 1108/515 1110/582 1111/583 1109/581
f 1110/515 1108/582 1101/584 1104/585
f 1107/515 1102/582 1109/584 1111/585
f 1112/23 1113/60 1114/576 1115/577
f 1116/23 1117/60 1118/576 1119/577
f 1117/23 1112/346 1115/578 1118/577
f 1113/23 1116/346 1119/578 1114/577
f 1116/23 1113/346 1112/347 1117/62
f 1118/23 1115/346 1114/347 1119/62
f 1113/515 1120/579 1121/580 1114/581
f 1122/515 1116/579 1119/580 1123/581
f 1116/515 1113/582 1114/583 1119/581
f 1120/515 1122/582 1123/583 1121/581
f 1122/515 1120/582 1113/584 1116/585
f 1119/515 1114/582 1121/584 1123/585
